<?xml version="1.0" encoding="utf-8"?>
<svg viewBox="99.148 98.58 795.579 788.005" xmlns="http://www.w3.org/2000/svg">
  <g id="surface15">
    <path style="opacity:1;vector-effect:none;fill:#000000;fill-opacity:1;fill-rule:nonzero;stroke:none;stroke-width:4.44130135;stroke-linecap:round;stroke-linejoin:round;stroke-miterlimit:10;stroke-dasharray:none;stroke-dashoffset:0;stroke-opacity:1" d="M 624.12695 131.43945 A 2.2208727 2.2208727 0 0 0 624.04492 131.44531 A 2.2208727 2.2208727 0 0 0 624.00195 131.44531 A 2.2208727 2.2208727 0 0 0 623.95898 131.44922 A 2.2208727 2.2208727 0 0 0 623.85352 131.46094 A 2.2208727 2.2208727 0 0 0 623.73242 131.47852 A 2.2208727 2.2208727 0 0 0 623.61914 131.50391 A 2.2208727 2.2208727 0 0 0 623.52148 131.5293 A 2.2208727 2.2208727 0 0 0 623.41406 131.56445 A 2.2208727 2.2208727 0 0 0 623.30078 131.60742 A 2.2208727 2.2208727 0 0 0 623.2207 131.64258 A 2.2208727 2.2208727 0 0 0 623.09961 131.70117 A 2.2208727 2.2208727 0 0 0 623.01562 131.74805 A 2.2208727 2.2208727 0 0 0 622.91602 131.81055 A 2.2208727 2.2208727 0 0 0 622.82812 131.87305 A 2.2208727 2.2208727 0 0 0 622.73438 131.94336 A 2.2208727 2.2208727 0 0 0 622.6582 132.00977 A 2.2208727 2.2208727 0 0 0 622.57227 132.08984 A 2.2208727 2.2208727 0 0 0 622.49219 132.17578 A 2.2208727 2.2208727 0 0 0 622.42578 132.25195 A 2.2208727 2.2208727 0 0 0 622.34766 132.35547 A 2.2208727 2.2208727 0 0 0 622.30078 132.42188 A 2.2208727 2.2208727 0 0 0 622.23242 132.52734 A 2.2208727 2.2208727 0 0 0 622.17578 132.62891 A 2.2208727 2.2208727 0 0 0 622.11328 132.75781 A 2.2208727 2.2208727 0 0 0 622.08789 132.81055 L 598.29883 190.26172 A 2.2208727 2.2208727 0 0 0 598.17188 190.68555 A 2.2208727 2.2208727 0 0 0 598.13086 191.12695 A 2.2208727 2.2208727 0 0 0 598.33398 192.03906 C 602.48125 201.03804 604.54449 211.25507 608.61719 221.30273 C 614.91672 288.43551 628.06557 481.92341 639.76367 647.43164 C 633.15721 647.78523 626.61125 647.99598 620.15039 648.04102 C 558.29936 648.47218 504.02276 634.59497 473.05273 604.99805 A 1.6656546 1.6656546 0 0 0 470.625 605.13086 A 1.6656546 1.6656546 0 0 0 470.58008 605.1875 A 1.6656546 1.6656546 0 0 0 470.5293 605.25781 A 1.6656546 1.6656546 0 0 0 470.49023 605.31445 A 1.6656546 1.6656546 0 0 0 470.4375 605.4043 A 1.6656546 1.6656546 0 0 0 470.4043 605.46875 A 1.6656546 1.6656546 0 0 0 470.36133 605.56445 A 1.6656546 1.6656546 0 0 0 470.34961 605.5918 A 1.6656546 1.6656546 0 0 0 470.33398 605.63086 L 462.36133 627.54297 A 1.6656546 1.6656546 0 0 0 462.60156 629.12305 A 1.6656546 1.6656546 0 0 0 462.61914 629.14453 C 484.37794 656.77007 493.69785 674.35665 497.36719 688.8457 C 498.39945 692.91733 498.64011 699.8319 498.92969 704.61523 C 499.00209 705.81105 499.07997 706.87698 499.18555 707.77344 C 499.29115 708.66992 499.35581 709.33202 499.69727 710.08008 C 499.86801 710.45408 500.16943 711.10431 501.12891 711.3125 C 501.60864 711.41663 502.11534 711.29116 502.43359 711.11719 C 502.75185 710.94323 502.93876 710.74799 503.08789 710.57031 C 503.65698 709.89231 503.89317 709.20078 504.25391 708.14453 L 506.66211 703.04883 A 1.6656546 1.6656546 0 0 0 506.67969 703.01562 C 511.18643 692.86077 513.80023 680.64715 512.26172 670.37695 L 512.26172 670.37305 C 511.77973 667.07672 510.94168 663.79937 509.78516 660.49023 C 537.43303 672.33851 570.92124 678.77263 607.67188 679.70703 C 618.83597 679.99088 630.30577 679.76024 642.00391 679.02344 C 645.69631 730.89967 649.20853 779.29501 652.20703 818.05078 A 2.2208727 2.2208727 0 0 0 652.20703 818.05469 C 655.3757 858.4061 657.26121 892.31008 658.70898 918.7832 C 499.65675 762.77435 338.38067 605.78501 254.25 494.42578 C 259.97558 495.92141 265.60532 497.3084 270.5625 498.35156 C 276.84727 499.67408 281.90187 500.51225 285.34766 500.19336 C 286.20911 500.11363 286.99323 499.97731 287.79492 499.57422 C 288.59662 499.17115 289.50217 498.24806 289.67773 497.10938 C 289.85332 495.97067 289.44295 495.05719 288.95703 494.29492 C 288.47112 493.53267 287.82804 492.83491 287 492.06641 A 2.2208727 2.2208727 0 0 0 286.93555 492.00977 L 278.80273 485.02734 L 278.78711 485.00977 C 256.06659 465.03746 247.69532 459.14545 237.29688 450.04297 A 2.2208727 2.2208727 0 0 0 237.21875 449.97852 C 222.43283 438.18638 211.34578 429.12863 200.05469 420.39062 C 194.40222 415.02856 187.25712 410.5349 174.9707 401.88086 A 2.2208727 2.2208727 0 0 0 174.9668 401.87891 A 2.2208727 2.2208727 0 0 0 174.83984 401.79883 A 2.2208727 2.2208727 0 0 0 174.77734 401.75977 A 2.2208727 2.2208727 0 0 0 174.58398 401.66406 A 2.2208727 2.2208727 0 0 0 172.6543 401.73438 A 2.2208727 2.2208727 0 0 0 172.64844 401.73828 A 2.2208727 2.2208727 0 0 0 172.28516 401.97852 A 2.2208727 2.2208727 0 0 0 172.2793 401.98438 A 2.2208727 2.2208727 0 0 0 171.9707 402.29297 A 2.2208727 2.2208727 0 0 0 171.9668 402.29883 A 2.2208727 2.2208727 0 0 0 171.72461 402.66797 A 2.2208727 2.2208727 0 0 0 171.72266 402.66992 A 2.2208727 2.2208727 0 0 0 171.71094 402.69727 A 2.2208727 2.2208727 0 0 0 171.56055 403.07422 A 2.2208727 2.2208727 0 0 0 171.55859 403.08008 A 2.2208727 2.2208727 0 0 0 171.50781 403.28906 A 2.2208727 2.2208727 0 0 0 171.50586 403.29688 A 2.2208727 2.2208727 0 0 0 171.47852 403.50977 A 2.2208727 2.2208727 0 0 0 171.4707 403.67773 L 170.96289 465.85547 A 2.2208727 2.2208727 0 0 0 171.88086 467.67383 A 2.2208727 2.2208727 0 0 0 171.88672 467.67773 C 171.89164 467.68126 171.89547 467.68397 171.90039 467.6875 A 2.2208727 2.2208727 0 0 0 171.97461 467.74023 C 188.74104 479.76006 195.49259 483.40027 201.46289 492.05273 A 2.2208727 2.2208727 0 0 0 201.51953 492.12695 C 210.45262 504.00313 224.81206 523.94192 240.72266 545.78125 C 320.4144 656.09742 482.99986 814.80687 638.4668 965.86914 C 602.69342 1002.1849 551.57323 1038.9479 496.94336 1066.459 C 417.82688 1106.3013 331.42671 1126.6409 273.91992 1100.1113 C 199.44287 1065.7559 182.53635 995.35084 185.39258 940.57227 A 2.2208727 2.2208727 0 0 0 185.39648 940.54688 C 186.83271 905.12481 198.54877 863.81578 204.38086 841.61523 A 2.2208727 2.2208727 0 0 0 204.39844 841.55859 L 205.20117 838.12305 L 205.17773 838.19727 C 205.77716 835.97921 206.16889 834.1858 206.36719 832.73242 C 206.51229 831.66884 206.61668 830.83321 206.48633 829.9668 L 209.03125 827.87109 A 2.2208727 2.2208727 0 0 0 209.19531 827.7207 A 2.2208727 2.2208727 0 0 0 209.34375 827.55664 A 2.2208727 2.2208727 0 0 0 209.34375 827.55469 A 2.2208727 2.2208727 0 0 0 209.58789 827.18555 A 2.2208727 2.2208727 0 0 0 209.69727 826.9375 A 2.2208727 2.2208727 0 0 0 209.7168 826.88867 C 215.92224 809.18819 218.25181 785.05461 220.9668 763.94336 C 222.32428 753.38773 223.77094 743.59631 225.76367 735.87305 C 227.75642 728.14978 230.42696 722.6103 233.34961 720.41016 A 2.2208727 2.2208727 0 0 0 233.35352 720.40625 C 235.51568 718.77278 237.8428 718.37087 241.60352 719.78711 C 245.36424 721.20335 250.32871 724.6738 256.45312 730.73438 A 2.2208727 2.2208727 0 0 0 260.07031 729.99609 L 266.55469 714.16602 A 2.2208727 2.2208727 0 0 0 266.35938 712.10938 C 259.63631 701.8054 253.80874 695.47835 248.27734 692.37109 C 245.51164 690.81747 242.73402 690.18269 240.12305 690.36719 C 237.51207 690.55168 235.07046 691.55332 232.98047 693.27344 A 2.2208727 2.2208727 0 0 0 232.97656 693.27734 C 227.37327 697.90153 223.72822 706.57905 220.67188 717.53906 C 217.61553 728.49909 215.29564 741.80279 213.20703 755.6543 C 211.07449 769.79716 209.1646 784.53039 207.02539 797.80078 C 204.71724 784.31793 200.92696 769.45287 195.40234 755.63086 C 190.44128 743.21882 184.08354 731.65215 176.0332 722.74609 C 167.98288 713.84004 158.1528 707.57464 146.49609 706.12891 A 2.2208727 2.2208727 0 0 0 146.27539 706.11328 L 146.27539 706.11133 A 2.2208727 2.2208727 0 0 0 145.1875 706.36719 C 143.98473 707.00235 142.99439 707.95299 142.31836 709.08984 A 2.2208727 2.2208727 0 0 0 142.17578 709.30859 C 142.17578 709.30859 142.17578 709.31055 142.17578 709.31055 C 142.17466 709.31261 142.173 709.31434 142.17188 709.31641 A 2.2208727 2.2208727 0 0 0 142.16797 709.32617 L 133.40625 725.66016 L 133.4082 725.66016 L 133.4082 725.66211 A 2.2208727 2.2208727 0 0 0 133.39844 725.67773 A 2.2215538 2.2215538 0 0 0 133.29883 725.88867 C 131.20374 730.11687 132.04645 736.00644 136.26562 741.3125 C 140.55425 746.70593 148.3501 751.53334 160.64062 753.87695 A 2.2208727 2.2208727 0 0 0 162.86914 752.98438 L 166.77539 747.48438 C 170.1508 751.85424 173.32707 756.76452 176.28906 762.16602 C 186.544 780.86693 194.24365 804.95478 199.49023 830.00195 C 196.16117 834.42963 191.34607 844.02124 186.06055 857.9668 C 175.48144 885.87916 163.50531 930.75681 162.45703 981.75 A 2.2208727 2.2208727 0 0 0 162.45703 981.75391 C 161.66322 1021.1986 167.20933 1058.2451 182.56445 1089.9102 C 197.91956 1121.5752 223.13579 1147.7949 261.26367 1165.3828 C 321.06939 1192.9703 408.4153 1171.8055 488.14258 1131.6562 C 522.94126 1114.1323 556.29742 1092.9717 585.27734 1070.4785 C 577.8761 1096.5663 577.14811 1116.9692 577.15625 1129.9941 A 2.2208727 2.2208727 0 0 0 577.16016 1130.1602 C 578.6018 1149.6623 584.02959 1162.2044 591.82812 1169.7793 C 599.62662 1177.3542 609.62387 1179.7097 619.4082 1179.3867 A 2.2208727 2.2208727 0 0 0 619.41211 1179.3867 C 646.33523 1178.4007 669.7533 1171.453 696.05859 1153.3984 A 2.2208727 2.2208727 0 0 0 696.07227 1153.3848 C 711.44575 1142.6471 721.56823 1124.9136 727.96875 1107.2246 C 734.36727 1089.5411 737.04151 1071.8917 737.19336 1060.8379 L 737.19336 1060.8281 C 738.00295 1017.6739 720.22604 991.6778 708.86719 975.64062 C 706.97515 972.61161 702.68246 967.12758 697.5918 960.79492 C 696.91048 959.94739 696.20324 959.10158 695.5 958.23242 C 731.27843 918.23765 804.77474 840.73633 881.13672 759.125 C 968.956 665.26876 1057.2349 569.34226 1086.2266 528.47656 L 1086.2266 528.47266 C 1125.2599 473.73184 1130.4892 459.2692 1138.6973 425.6543 A 2.2208727 2.2208727 0 0 0 1138.7148 425.58203 L 1141.5176 412.12305 A 2.2208727 2.2208727 0 0 0 1141.5215 412.11914 C 1142.3571 408.03103 1142.9678 404.97233 1143.3301 402.80273 C 1143.5112 401.71792 1143.6298 400.86404 1143.6816 400.14453 C 1143.7076 399.78478 1143.7195 399.46076 1143.6934 399.10352 C 1143.667 398.74628 1143.695 398.3494 1143.2383 397.6582 C 1143.0099 397.31263 1142.5591 396.87862 1141.9688 396.69141 C 1141.3784 396.50415 1140.7958 396.59767 1140.4277 396.73047 C 1139.6915 396.99599 1139.4727 397.30302 1139.2363 397.55859 C 1138.7635 398.06974 1138.4325 398.59643 1137.9961 399.31055 C 1137.1232 400.73879 1135.9907 402.83599 1134.5 405.61328 C 1128.537 416.72249 1116.9661 438.54707 1097.6504 465.56055 A 2.2208727 2.2208727 0 0 0 1097.6465 465.57031 C 1069.2122 505.64995 981.55235 602.03967 894.16211 695.93164 C 806.77189 789.82362 719.5791 881.35402 691.44141 912.64453 A 2.2208727 2.2208727 0 0 0 691.41797 912.67188 C 688.87501 915.59354 686.03023 918.65144 683.07422 921.75781 C 687.30611 883.30616 687.54591 830.73693 681.92969 760.89844 A 2.2208727 2.2208727 0 0 0 681.92578 760.89453 C 679.85802 735.83946 677.59573 706.76727 675.24219 675.62305 C 718.35818 669.56449 763.57437 656.91915 807.63086 637.4668 A 1.6656546 1.6656546 0 0 0 807.63867 637.46289 C 814.30825 634.4782 819.49083 632.78565 823.24414 632.17578 C 826.99743 631.56595 829.15467 632.08669 830.1543 632.94727 C 831.15392 633.80785 831.57644 635.33301 831.12891 638.03125 C 830.6814 640.72952 829.30534 644.33526 827.12695 648.50977 C 821.80347 658.61506 811.65286 672.14678 798.75586 684.01367 A 1.6656546 1.6656546 0 0 0 798.74414 684.02734 C 796.14698 686.47941 786.31411 694.45483 779.47266 700.58594 C 777.7623 702.11872 776.23417 703.54472 775.01953 704.77148 C 773.80488 705.99823 772.92415 706.93114 772.37695 707.93359 C 772.24017 708.18419 772.11712 708.44637 772.04297 708.82227 C 771.96884 709.19816 771.95713 709.79377 772.32031 710.3418 C 772.68354 710.88984 773.28611 711.13387 773.69141 711.19922 C 774.0967 711.26455 774.40668 711.22703 774.71484 711.17383 C 775.94744 710.961 777.35558 710.33287 779.64258 709.17969 L 783.07227 707.44336 L 783.08594 707.43359 C 792.95546 702.74569 800.68293 694.92375 808.16797 688.93164 A 1.6656546 1.6656546 0 0 0 808.21094 688.89258 C 823.10744 676.03778 838.88395 654.41917 844.09375 639.86523 A 1.6656546 1.6656546 0 0 0 844.11914 639.78711 C 848.23215 626.31771 850.08784 614.03835 845.59766 606.46484 C 843.35259 602.67811 839.31362 600.34649 833.82812 600.19727 L 833.82617 600.19727 C 828.34068 600.04805 821.34813 601.86313 812.31836 605.99219 C 768.22209 625.47989 719.75221 638.54088 672.90625 644.44531 C 663.38632 516.15981 652.62124 358.64116 645.05078 254.32422 C 650.0573 261.67757 653.21736 266.28631 664.77539 279.5957 L 667.19922 282.4668 A 2.2208727 2.2208727 0 0 0 667.22266 282.49219 C 668.14963 283.55528 668.82656 284.39467 670.33594 284.73047 C 671.09063 284.89835 672.20257 284.68403 672.86914 284.10547 C 673.53569 283.52688 673.78015 282.87499 673.93164 282.30078 C 674.53759 280.00386 674.07447 277.38616 673.31055 273.37891 C 671.78264 265.3644 668.29351 252.83467 663.56055 237.69336 C 654.09461 207.41075 639.66793 166.84326 626.20508 132.8457 A 2.2208727 2.2208727 0 0 0 626.1543 132.73047 A 2.2208727 2.2208727 0 0 0 626.14453 132.70898 A 2.2208727 2.2208727 0 0 0 626.07617 132.58008 A 2.2208727 2.2208727 0 0 0 626.02734 132.49609 A 2.2208727 2.2208727 0 0 0 625.96094 132.39648 A 2.2208727 2.2208727 0 0 0 625.90039 132.3125 A 2.2208727 2.2208727 0 0 0 625.82031 132.21289 A 2.2208727 2.2208727 0 0 0 625.76562 132.15234 A 2.2208727 2.2208727 0 0 0 625.67188 132.05664 A 2.2208727 2.2208727 0 0 0 625.58984 131.98242 A 2.2208727 2.2208727 0 0 0 625.52734 131.92969 A 2.2208727 2.2208727 0 0 0 625.38281 131.82227 A 2.2208727 2.2208727 0 0 0 625.35352 131.80469 A 2.2208727 2.2208727 0 0 0 625.22266 131.72461 A 2.2208727 2.2208727 0 0 0 625.15039 131.68555 A 2.2208727 2.2208727 0 0 0 625.0293 131.62891 A 2.2208727 2.2208727 0 0 0 624.92188 131.58594 A 2.2208727 2.2208727 0 0 0 624.85156 131.55859 A 2.2208727 2.2208727 0 0 0 624.6875 131.51172 A 2.2208727 2.2208727 0 0 0 624.63281 131.49805 A 2.2208727 2.2208727 0 0 0 624.50586 131.47266 A 2.2208727 2.2208727 0 0 0 624.40039 131.45703 A 2.2208727 2.2208727 0 0 0 624.27734 131.44531 A 2.2208727 2.2208727 0 0 0 624.1875 131.44141 A 2.2208727 2.2208727 0 0 0 624.12695 131.43945 z M 928.67773 321.61914 C 928.43754 321.61763 928.21284 321.65699 928.03906 321.71484 L 928.03906 321.71289 C 927.6915 321.82862 927.47549 321.98606 927.29297 322.13086 C 926.92797 322.4205 926.67996 322.7155 926.40039 323.06641 C 925.8412 323.76822 925.21604 324.69279 924.41406 325.85156 C 921.20616 330.48674 915.35858 338.72867 905.00977 345.94922 C 876.07775 365.74127 806.128 408.48915 775.31836 429.08984 C 752.74091 444.02149 747.99869 459.05847 746.25586 470.92188 A 1.6656546 1.6656546 0 0 0 746.25 470.95312 C 746.24982 470.95437 746.25018 470.95578 746.25 470.95703 C 746.246 470.98383 746.24033 471.00849 746.23633 471.03516 L 744.09766 485.61719 L 743.99414 486.31445 L 743.97266 486.46094 L 743.97266 486.46289 C 743.9716 486.46993 743.96998 486.47702 743.96875 486.48438 A 1.6662423 1.6662423 0 0 0 743.9668 486.5 C 743.53829 489.40103 743.24994 491.51386 743.13086 493.01562 C 743.07099 493.77067 743.05006 494.36367 743.09766 494.91602 C 743.14512 495.46834 743.06954 496.21233 744.10742 496.86719 C 744.62638 497.19463 745.33171 497.19081 745.73828 497.05859 C 746.14487 496.92633 746.37934 496.74403 746.58789 496.57227 C 747.00497 496.22872 747.31576 495.85513 747.68555 495.38477 C 748.42516 494.4441 749.31851 493.13394 750.45703 491.50195 C 755.01056 484.97486 763.38209 473.35813 777.16992 464.05664 L 777.17383 464.05273 C 807.81638 443.56927 877.72867 400.85294 906.88281 380.9043 L 906.9043 380.89062 C 913.21086 376.72002 918.43426 372.75404 922.27539 367.25 C 926.1204 361.74036 928.48839 354.76457 929.27539 344.85742 L 929.27539 344.85352 L 930.57617 329.32227 A 1.6656546 1.6656546 0 0 0 930.57617 329.29492 C 930.70857 327.31334 930.78726 325.87552 930.76758 324.80664 C 930.75824 324.2722 930.73089 323.83496 930.62891 323.37891 C 930.52691 322.92287 930.37546 322.18093 929.41406 321.76562 C 929.17371 321.6618 928.91793 321.62065 928.67773 321.61914 z M 512.3457 338.54688 C 512.1044 338.54529 511.88064 338.58274 511.70703 338.64062 L 511.70703 338.64258 C 511.35978 338.75831 511.14734 338.91378 510.96484 339.05859 C 510.59988 339.34821 510.35196 339.64314 510.07227 339.99414 C 509.51288 340.69615 508.88222 341.62424 508.08008 342.7832 C 504.87146 347.41908 499.02578 355.66105 488.67969 362.87891 C 459.74251 382.67616 389.79379 425.42226 358.98438 446.01758 C 336.38496 460.96899 331.65596 476.02103 329.91211 487.88867 L 327.76562 502.54883 L 327.76367 502.55078 A 1.6656546 1.6656546 0 0 0 327.76172 502.55273 C 327.72052 502.83633 327.68183 503.11178 327.64062 503.38477 L 327.64062 503.39453 C 327.20926 506.31766 326.91809 508.44005 326.79883 509.94922 C 326.73923 510.70429 326.71594 511.29527 326.76367 511.84766 C 326.81141 512.40002 326.73566 513.14635 327.77344 513.80078 C 328.29232 514.12801 329.00357 514.12242 329.41016 513.99023 C 329.81673 513.85797 330.04729 513.67765 330.25586 513.50586 C 330.67298 513.1623 330.98764 512.78678 331.35742 512.31641 C 332.09698 511.3757 332.98663 510.06752 334.125 508.43555 C 338.67789 501.90843 347.05009 490.28975 360.83789 480.98828 L 360.8418 480.98438 C 391.48412 460.49588 461.39577 417.77904 490.55469 397.83594 L 490.57617 397.82227 C 496.88281 393.65159 502.10162 389.68183 505.94141 384.17773 C 509.78449 378.66893 512.15599 371.69349 512.94336 361.78906 L 512.94336 361.7793 L 514.24805 346.24805 A 1.6656546 1.6656546 0 0 0 514.24805 346.21875 C 514.38045 344.23715 514.45928 342.79741 514.43945 341.72852 C 514.43012 341.19405 514.40303 340.76285 514.30078 340.30664 C 514.19851 339.85043 514.04764 339.10753 513.08594 338.69336 C 512.84552 338.58981 512.587 338.54846 512.3457 338.54688 z M 949.13867 423.12109 C 948.71441 423.15897 948.31443 423.34605 948.09961 423.52539 C 947.8132 423.76448 947.70345 423.96515 947.61328 424.12891 C 947.25257 424.78397 947.19062 425.2471 946.99805 426.05469 C 946.80547 426.86227 946.57534 427.91808 946.26953 429.27539 A 1.6656546 1.6656546 0 0 0 946.25586 429.35352 L 945.1582 435.60938 C 943.38552 443.17283 943.9159 449.21602 947.00586 454.53711 C 950.24719 461.85578 955.33579 467.52307 959.1582 473.13086 C 962.9112 478.63685 965.39137 483.9333 964.37695 490.91211 C 961.91983 494.09312 956.98627 496.24819 951.58594 496.71094 C 946.04788 497.18548 940.23292 495.92087 936.72266 493.1543 A 1.6656546 1.6656546 0 0 0 936.54492 493.0332 C 933.60064 491.27643 931.04649 487.53761 928.88867 482.58008 C 926.73087 477.62254 924.95659 471.52258 923.25195 465.27539 C 919.84267 452.78104 916.9682 439.74295 910.68555 433.27148 A 1.6656546 1.6656546 0 0 0 908.02539 433.63477 A 1.6656546 1.6656546 0 0 0 908.01953 433.64453 A 1.6656546 1.6656546 0 0 0 907.90234 433.92773 A 1.6656546 1.6656546 0 0 0 907.89062 433.96484 A 1.6656546 1.6656546 0 0 0 907.88477 433.98242 L 904.19336 447.12891 A 1.6656546 1.6656546 0 0 0 904.13281 447.62305 A 1.6656546 1.6656546 0 0 0 904.29297 448.29492 C 906.50653 452.92463 908.97021 457.96868 911.19922 463.09375 C 914.38298 471.50969 916.3453 479.58966 917.97852 486.80469 C 918.17236 490.90166 917.56498 494.62243 915.85547 497.73828 C 909.00207 508.54083 900.59314 512.01603 893.14648 512.00391 C 885.68658 511.99191 879.14541 508.19842 876.6875 504.5957 A 1.6656546 1.6656546 0 0 0 876.67383 504.57812 C 869.77241 494.73543 870.79094 481.59448 871.93359 470.10156 C 872.50495 464.3551 873.10721 459.0745 872.57031 454.70508 C 872.30189 452.52036 871.74155 450.53469 870.61914 448.88086 C 869.49674 447.22703 867.78296 445.98334 865.60938 445.38477 A 1.6656546 1.6656546 0 0 0 865.50977 445.35938 C 858.18649 443.81933 850.17416 447.89256 843.44727 454.66602 C 836.72616 461.43363 831.18637 471.05379 828.94336 481.46094 C 826.23461 492.00666 825.83811 504.2969 827.86523 516.48633 A 1.6656546 1.6656546 0 0 0 827.86719 516.49805 C 827.86838 516.50523 827.8699 516.51234 827.87109 516.51953 L 828.41797 519.79883 C 828.5253 520.44492 828.62793 520.96042 828.74414 521.39844 C 828.86027 521.83641 828.8971 522.16011 829.31641 522.69531 C 829.52606 522.96291 830.00171 523.40843 830.74219 523.41602 C 831.48264 523.42402 831.96495 522.98683 832.17773 522.72656 C 832.60332 522.20607 832.63468 521.90428 832.74609 521.51953 C 833.19169 519.98046 833.51882 517.39005 834.01367 513.92969 C 835.00337 507.00897 836.50534 497.04115 839.20898 489.82812 A 1.6656546 1.6656546 0 0 0 839.2168 489.81055 C 844.09337 476.33297 853.2433 469.45329 860.03516 468.84961 C 860.62168 469.0438 861.00532 469.26386 861.30664 469.79102 C 861.65224 470.39571 861.9161 471.40998 862.02148 472.78711 C 862.2323 475.54142 861.83932 479.62174 861.57617 484.49414 C 861.05128 494.21363 861.14793 507.22607 868.38086 520.73438 C 869.96207 524.53448 873.1695 528.43248 877.39258 531.52539 C 881.63358 534.63143 886.92009 536.91375 892.61719 537.11719 C 898.31427 537.32064 904.39444 535.37067 909.89648 530.26758 C 915.06802 525.471 919.74707 517.93243 923.49805 506.81445 C 924.71282 509.49885 926.20577 511.72456 928.25195 513.30469 C 932.92311 517.68734 941.54481 520.92882 950.42773 519.49414 C 959.36273 518.05103 968.34763 511.52896 972.72656 496.83789 C 976.57118 485.11674 975.60461 476.10627 972.33008 467.97656 C 969.0543 459.84372 963.62644 452.56427 958.53516 443.6582 C 958.53249 443.65287 958.52806 443.64986 958.52539 443.64453 C 954.02778 435.21165 952.41285 429.01384 951.56055 426.04492 C 951.34704 425.3012 951.22941 424.80767 950.94141 424.24023 C 950.86941 424.09838 950.78578 423.9462 950.61133 423.74609 C 950.43687 423.54599 950.12881 423.24275 949.56641 423.13867 L 949.56445 423.13867 C 949.42385 423.11264 949.28009 423.10847 949.13867 423.12109 z M 474.25 458.59961 C 463.13363 458.67601 452.01609 459.4792 441.75586 461.18945 A 2.776091 2.776091 0 0 0 439.83008 462.50391 L 410.9707 510.74219 A 2.776091 2.776091 0 0 0 413.90234 514.88867 C 437.43802 510.14967 461.52856 509.543 481.47266 511.25 C 492.42695 512.18755 502.17393 513.89141 509.8125 515.89648 C 503.19802 520.49909 495.80681 524.85532 487.39258 529.10938 C 472.50991 536.43342 457.68945 543.27228 437.38086 550.88281 A 2.776091 2.776091 0 0 0 437.3418 550.90039 C 420.87532 557.34766 416.41062 558.7838 407.44922 562.00781 L 406.74609 562.25 A 2.776091 2.776091 0 0 0 406.72461 562.25391 C 405.44545 562.70472 404.78289 562.88901 403.86133 563.5 C 403.63091 563.65276 403.34242 563.78868 402.92578 564.41992 C 402.71746 564.73556 402.45679 565.24477 402.44727 565.96289 C 402.43793 566.68098 402.79169 567.47452 403.18164 567.90625 C 403.96157 568.76969 404.47788 568.75066 404.80273 568.82031 C 405.12763 568.89005 405.34594 568.90371 405.55859 568.91211 C 407.25977 568.97944 409.32164 568.62825 412.57617 568.15234 C 419.08313 567.20084 429.0209 565.55715 438.15234 564.45312 L 438.16211 564.45312 C 448.53443 563.48956 459.54126 562.3678 468.94141 561.14844 C 478.36539 559.92597 486.01127 558.69789 490.37305 557.16797 A 2.776091 2.776091 0 0 0 490.50195 557.11523 C 497.69945 554.18186 505.10955 547.825 511.76758 540.79492 C 518.42562 533.76486 524.21971 526.06834 527.67773 520.24414 A 2.776091 2.776091 0 0 0 527.71094 520.18945 L 527.71094 520.1875 L 552.29883 476.55273 A 2.776091 2.776091 0 0 0 552.29883 476.55078 A 2.776091 2.776091 0 0 0 551.65234 473.04688 C 547.86322 469.90961 541.85625 467.51784 534.13477 465.39648 C 526.41325 463.27512 517.00801 461.54865 506.74414 460.36133 C 496.4803 459.17402 485.36639 458.5232 474.25 458.59961 z M 948.90039 696.65039 A 2.2208727 2.2208727 0 0 0 948.67969 696.65234 A 2.2208727 2.2208727 0 0 0 948.57227 696.66406 A 2.2208727 2.2208727 0 0 0 948.26367 696.71484 A 2.2208727 2.2208727 0 0 0 947.69922 696.94336 A 2.2208727 2.2208727 0 0 0 947.64258 696.97461 A 2.2208727 2.2208727 0 0 0 947.63086 696.98047 A 2.2208727 2.2208727 0 0 0 947.4668 697.09375 A 2.2208727 2.2208727 0 0 0 947.3125 697.2207 A 2.2208727 2.2208727 0 0 0 947.29297 697.23828 A 2.2208727 2.2208727 0 0 0 947.05469 697.5 A 2.2208727 2.2208727 0 0 0 946.99023 697.58203 A 2.2208727 2.2208727 0 0 0 946.98828 697.58398 A 2.2208727 2.2208727 0 0 0 946.97266 697.60742 A 2.2208727 2.2208727 0 0 0 946.87305 697.76367 A 2.2208727 2.2208727 0 0 0 946.79688 697.91211 A 2.2208727 2.2208727 0 0 0 946.77734 697.95117 A 2.2208727 2.2208727 0 0 0 946.58398 698.73438 A 2.2208727 2.2208727 0 0 0 946.57812 698.83008 A 2.2208727 2.2208727 0 0 0 946.57617 698.86914 L 946.57617 765.51367 A 2.2208727 2.2208727 0 0 0 946.75195 766.37891 A 2.2208727 2.2208727 0 0 0 947.41602 767.25391 A 2.2208727 2.2208727 0 0 0 947.41797 767.25391 A 2.2208727 2.2208727 0 0 0 947.59766 767.38281 A 2.2208727 2.2208727 0 0 0 947.99219 767.58398 A 2.2208727 2.2208727 0 0 0 947.99414 767.58398 A 2.2208727 2.2208727 0 0 0 948.41992 767.70312 A 2.2208727 2.2208727 0 0 0 948.72852 767.73438 C 952.02313 767.83344 954.96414 767.9181 957.10742 768.15625 C 959.22219 768.39123 960.41399 769.1306 960.19531 768.83203 C 1028.7753 855.49743 1085.5398 867.9536 1133.793 892 C 1152.1638 901.14152 1163.4898 914.38084 1170.4824 927.94922 C 1164.5456 934.1636 1156.0365 941.84291 1143.3398 950.38672 A 2.2208727 2.2208727 0 0 0 1143.3359 950.39062 C 1067.6232 1001.6341 969.34685 1061.2649 888.42969 1102.2363 C 888.42861 1102.2369 888.42711 1102.2358 888.42578 1102.2363 C 888.42445 1102.2372 888.42321 1102.2402 888.42188 1102.2402 C 876.20617 1108.3613 860.31402 1114.2108 844.05078 1115.9824 C 827.78402 1117.7544 811.23013 1115.4851 797.25195 1105.5723 A 2.2208727 2.2208727 0 0 0 797.20898 1105.541 C 787.70862 1099.1404 772.42177 1079.1347 772.66016 1050.1777 A 2.2208727 2.2208727 0 0 0 772.66016 1050.125 C 772.01682 1009.1206 785.12058 972.95462 798.89258 945.08203 C 805.77858 931.14571 812.82599 919.29481 818.40039 909.92969 C 823.97483 900.56455 828.08977 893.99419 829.19141 889.27539 A 2.2208727 2.2208727 0 0 0 829.22656 889.08398 L 829.31055 888.49609 C 829.75639 886.5513 829.96606 885.07495 829.53906 883.56836 C 829.32074 882.79808 828.81012 881.92173 827.94336 881.42578 C 827.07657 880.92985 826.1057 880.93616 825.35352 881.10938 L 825.35156 881.10938 C 823.84722 881.45582 822.68415 882.31095 821.2793 883.51172 C 819.87444 884.71251 818.31555 886.31194 816.58984 888.30078 C 809.68696 896.25621 800.10615 910.50385 790.37305 928.99219 C 770.90682 965.96891 750.93625 1019.7885 752.48242 1072.8828 A 2.2208727 2.2208727 0 0 0 752.48633 1072.9395 C 753.60831 1093.0935 756.51475 1138.4221 787.57031 1166.3887 A 2.2208727 2.2208727 0 0 0 787.5918 1166.4102 C 811.69578 1187.5366 856.75156 1186.5037 890.47461 1168.3574 L 890.4668 1168.3574 C 976.41973 1122.4308 1069.9387 1067.6045 1145.8242 1016.2441 A 2.2208727 2.2208727 0 0 0 1145.8281 1016.2441 C 1167.2618 1001.6622 1177.3272 987.75689 1183.8711 966.97266 C 1183.9564 966.78132 1183.9677 966.63968 1184.0293 966.4668 A 2.2208727 2.2208727 0 0 0 1184.0957 966.24414 L 1184.1289 966.10938 C 1185.4897 961.68479 1186.7079 956.97136 1187.8379 951.85352 C 1188.5709 948.72153 1189.1672 945.75938 1189.6699 942.94141 C 1190.4038 939.28921 1191.1192 935.05539 1191.7578 929.73047 C 1196.5823 895.59347 1186.3724 871.99024 1172.332 855.91602 C 1158.2917 839.84179 1140.5266 831.15848 1130.3516 826.08008 A 2.2208727 2.2208727 0 0 0 1130.3477 826.08008 C 1095.5522 808.73829 1057.9985 797.66994 1021.1211 765.67383 C 1027.1523 765.84619 1032.4663 766.08006 1036.4004 766.35938 A 2.2208727 2.2208727 0 0 0 1036.4473 766.36328 L 1040.2344 766.54688 C 1042.3448 766.6972 1044.0491 766.68874 1045.4863 766.47266 C 1046.9235 766.25656 1048.2057 765.88196 1049.1914 764.76758 C 1050.1771 763.65319 1050.2515 761.90295 1049.8027 760.70312 C 1049.354 759.50331 1048.5866 758.49715 1047.5859 757.4082 C 1043.5832 753.05238 1035.3319 747.45873 1024.6211 740.80859 C 1008.4652 730.77765 986.90022 718.68199 967.70312 707.50586 C 966.87696 706.92595 966.06443 706.35255 965.17773 705.74805 C 959.94809 702.18279 954.14141 698.5438 949.75586 696.86719 A 2.2208727 2.2208727 0 0 0 948.90039 696.65039 z M 362.72656 774.10938 C 361.17227 774.09521 359.50045 774.22626 357.7168 774.51367 C 344.60857 776.61947 331.87967 786.98925 322.68164 802.85742 C 316.17537 814.00012 314.7465 824.13384 316.89258 833.35742 C 319.03902 842.58248 324.65497 850.81626 331.89062 858.58594 L 331.8418 858.53906 C 345.5219 874.51045 364.71941 896.80415 362.9707 934.9043 L 362.29883 941.00586 A 1.6656546 1.6656546 0 0 0 362.28906 941.09766 C 362.22413 942.29456 362.22446 943.13462 362.46289 943.96484 C 362.58209 944.37998 362.74534 944.89884 363.4043 945.33008 C 364.06327 945.76128 365.07084 945.62176 365.5332 945.34375 C 366.4579 944.78703 366.69664 944.17078 367.11719 943.35352 C 367.53773 942.53625 367.9629 941.50771 368.39648 940.25586 C 370.13082 935.24842 372.01522 926.67657 372.64648 916.25 C 373.90867 895.40281 370.09118 867.12019 349.04297 846.76367 L 349.02539 846.74609 C 339.22651 836.97745 334.07529 829.53531 331.89844 823.73633 C 329.73685 817.97793 330.36471 813.89674 332.25781 810.04102 C 335.82449 804.79346 339.99133 802.29701 344.18164 801.25391 C 348.39901 800.20405 352.67928 800.66243 356.17773 801.55664 C 360.73473 802.80389 363.51709 805.58039 365.38672 809.05664 C 367.25867 812.53715 368.11216 816.71768 368.47852 820.36719 C 368.84488 824.01667 368.72963 827.0093 368.80469 828.58203 C 368.81402 828.7786 368.8257 828.95547 368.85156 829.14648 C 368.87743 829.33751 368.86415 829.51047 369.08203 829.92969 C 369.19096 830.1393 369.3885 830.4916 369.92188 830.72852 C 370.45526 830.96546 371.16677 830.82725 371.49219 830.63672 C 372.14303 830.25556 372.13708 830.01615 372.24219 829.82227 C 372.66268 829.04672 372.90384 828.17987 373.45312 826.42969 A 1.6656546 1.6656546 0 0 0 373.45703 826.41406 L 375.78711 818.67969 C 377.80251 812.23729 380.64641 800.54702 379.45117 790.5918 C 378.85352 785.61421 377.21125 780.97113 373.67773 777.8457 C 371.02759 775.50163 367.39112 774.1519 362.72656 774.10938 z M 953.29883 811.42188 C 949.88802 811.49989 946.25926 812.12549 942.60742 813.26758 C 932.88038 816.30967 922.85793 823.2503 916.39844 834.55859 C 905.39785 852.09221 905.40987 869.07616 909.75 885.80664 C 914.09405 902.55221 922.59949 919.24212 928.73438 937.12891 C 934.93793 955.55374 937.53721 981.1421 934.29688 1008.1777 C 928.55894 979.65243 920.69822 954.50991 909.77148 935.00781 C 896.92415 912.07784 879.61544 896.82607 856.76562 893.7832 A 2.2208727 2.2208727 0 0 0 856.72852 893.7793 A 2.2208727 2.2208727 0 0 0 856.67578 893.77539 A 2.2208727 2.2208727 0 0 0 856.54492 893.76562 A 2.2208727 2.2208727 0 0 0 856.51562 893.76562 A 2.2208727 2.2208727 0 0 0 856.50586 893.76562 A 2.2208727 2.2208727 0 0 0 856.4668 893.76758 A 2.2208727 2.2208727 0 0 0 856.28516 893.77344 A 2.2208727 2.2208727 0 0 0 856.26172 893.77734 A 2.2208727 2.2208727 0 0 0 856.07422 893.80078 A 2.2208727 2.2208727 0 0 0 856.00977 893.81641 A 2.2208727 2.2208727 0 0 0 855.85938 893.85352 A 2.2208727 2.2208727 0 0 0 855.80469 893.87109 A 2.2208727 2.2208727 0 0 0 855.65039 893.92383 A 2.2208727 2.2208727 0 0 0 855.55664 893.96484 A 2.2208727 2.2208727 0 0 0 855.46094 894.00977 A 2.2208727 2.2208727 0 0 0 855.34961 894.07422 A 2.2208727 2.2208727 0 0 0 855.26367 894.125 A 2.2208727 2.2208727 0 0 0 855.19141 894.17578 A 2.2208727 2.2208727 0 0 0 855.06836 894.26758 A 2.2208727 2.2208727 0 0 0 855.06445 894.27148 A 2.2208727 2.2208727 0 0 0 854.76367 894.57031 A 2.2208727 2.2208727 0 0 0 854.71289 894.63672 A 2.2208727 2.2208727 0 0 0 854.62891 894.75195 A 2.2208727 2.2208727 0 0 0 854.60938 894.78125 A 2.2208727 2.2208727 0 0 0 854.42383 895.13477 A 2.2208727 2.2208727 0 0 0 854.39844 895.20312 A 2.2208727 2.2208727 0 0 0 854.29492 895.56055 A 2.2208727 2.2208727 0 0 0 854.27734 895.67773 A 2.2208727 2.2208727 0 0 0 854.26562 895.77344 A 2.2208727 2.2208727 0 0 0 854.25781 895.89844 A 2.2208727 2.2208727 0 0 0 854.25391 896.00391 A 2.2208727 2.2208727 0 0 0 854.25391 896.01953 A 2.2208727 2.2208727 0 0 0 854.25586 896.07227 L 855.64648 931.57227 A 2.2208727 2.2208727 0 0 0 856.75781 933.41211 C 863.99693 937.5718 869.85621 940.06316 875.09961 943.21875 C 880.34298 946.37436 885.05133 950.16702 890.3457 957.20508 A 2.2208727 2.2208727 0 0 0 894.24023 956.5332 L 894.46094 955.82422 C 910.00695 972.80135 922.34163 999.70134 928.14258 1039.2402 A 2.2211062 2.2211062 0 0 0 932.05664 1040.4375 A 2.2208727 2.2208727 0 0 0 932.05859 1040.4336 A 2.2211062 2.2211062 0 0 0 932.18945 1040.2617 A 2.2208727 2.2208727 0 0 0 932.21094 1040.2285 A 2.2211062 2.2211062 0 0 0 932.30469 1040.0723 A 2.2208727 2.2208727 0 0 0 932.32031 1040.0391 A 2.2211062 2.2211062 0 0 0 932.39062 1039.8965 A 2.2208727 2.2208727 0 0 0 932.42773 1039.8008 A 2.2211062 2.2211062 0 0 0 932.47852 1039.6621 A 2.2208727 2.2208727 0 0 0 932.48047 1039.6523 L 932.49023 1039.6172 L 937.0625 1024.5605 C 948.80166 991.24184 949.80558 950.03129 943.13672 925.76172 L 943.13672 925.75781 C 939.33949 911.83377 932.34643 895.96858 927.42383 881.0918 C 922.53511 866.31745 919.92019 852.64968 923.69336 843.3457 C 927.86609 837.46209 935.643 833.60826 943.46289 833.27539 C 951.37364 832.93862 959.07993 835.98246 963.53125 843.6875 A 2.2208727 2.2208727 0 0 0 963.53125 843.69141 C 968.61385 852.46073 970.80363 866.42067 971.70312 876.81641 C 972.15289 882.01426 972.30633 886.30945 972.43164 888.75586 C 972.46297 889.36747 972.49068 889.86153 972.52734 890.26562 C 972.54561 890.46767 972.56468 890.64169 972.59961 890.8457 C 972.61708 890.9477 972.63457 891.05424 972.68164 891.21484 C 972.72871 891.37546 972.72799 891.57737 973.12109 892.06055 C 973.21936 892.18135 973.35174 892.32107 973.55078 892.46484 C 973.74982 892.60863 974.34899 892.83143 974.35156 892.83203 C 974.35423 892.83263 975.38214 892.82813 975.38477 892.82812 C 975.38743 892.82748 975.95884 892.61583 976.14453 892.48633 C 976.88725 891.96829 976.87207 891.66687 976.95117 891.48047 C 977.10937 891.10763 977.11774 890.96299 977.1582 890.76367 C 977.23914 890.36502 977.30458 889.90239 977.38867 889.24609 A 2.2208727 2.2208727 0 0 0 977.39258 889.22852 L 978.74609 877.96094 C 981.14588 858.7024 981.254 845.70055 979.31836 836.14062 C 977.38271 826.5807 973.23342 820.47681 967.64258 815.7168 A 2.2208727 2.2208727 0 0 0 967.63867 815.71289 C 964.77885 813.28578 960.95631 811.91305 956.63086 811.52734 C 955.5495 811.43092 954.43576 811.39587 953.29883 811.42188 z M 381.79883 815.47852 A 1.6656546 1.6656546 0 0 0 380.23242 816.54102 L 371.25586 839.61914 A 1.6656546 1.6656546 0 0 0 371.59766 841.36719 C 382.31243 852.67751 408.6502 879.45116 400.93945 922.45117 A 1.6656546 1.6656546 0 0 0 400.93945 922.46484 C 398.63527 935.87359 391.75897 956.4082 387.40625 977.35156 C 383.05432 998.2912 381.10911 1019.7681 389.26367 1035.4805 C 389.26501 1035.4831 389.26624 1035.4843 389.26758 1035.4883 C 392.46776 1041.9417 398.50087 1046.2797 404.92383 1047.2988 C 411.35739 1048.3197 418.2557 1045.8099 422.48633 1038.9277 A 1.6656546 1.6656546 0 0 0 422.49023 1038.9238 C 429.21771 1027.846 430.5414 1012.6258 430.14453 1002.5996 C 430.04533 1000.0931 429.83642 997.91429 429.55469 996.17773 C 429.27293 994.44116 429.04092 993.25133 428.39648 992.20898 C 428.23538 991.9484 428.04425 991.66665 427.63867 991.40234 C 427.23307 991.13804 426.47128 990.98497 425.89844 991.19727 C 424.75278 991.62187 424.63413 992.33937 424.42383 992.94141 C 424.00319 994.1455 423.77963 995.82417 423.60938 998.46289 L 423.60938 998.42773 L 423.54297 999.2168 A 1.6656546 1.6656546 0 0 0 423.53906 999.24805 C 423.23234 1003.7722 423.50976 1012.1977 415.75 1018.0977 C 413.63008 1019.6121 410.39516 1019.6836 407.1543 1018.5273 C 403.90795 1017.3692 400.82429 1014.9959 399.27344 1012.3418 C 392.60601 1000.6985 394.05075 985.05194 398.0625 968.09766 C 402.07559 951.13762 408.57612 933.032 411.32227 916.52344 A 1.6656546 1.6656546 0 0 0 411.32227 916.50977 C 419.71956 863.22344 398.58161 835.89388 383.0957 816.12109 A 1.6656546 1.6656546 0 0 0 381.79883 815.48047 L 381.79883 815.47852 z M 312.18555 868.10352 C 310.8109 868.07828 309.47023 868.21074 308.17773 868.48438 C 305.59227 869.03231 303.18306 870.15304 301.01367 871.73633 C 296.67386 874.90371 293.21231 879.83127 290.5 885.74609 C 285.07857 897.56879 282.63009 913.43994 283.26172 927.96484 L 283.26172 927.96875 C 283.26203 927.97542 283.2614 927.98303 283.26172 927.99023 L 283.85938 949.70117 A 1.6656546 1.6656546 0 0 0 283.86328 949.77148 C 283.93195 950.76286 283.99886 951.46978 284.09766 952.03125 C 284.14712 952.31201 284.18258 952.5389 284.33594 952.88477 C 284.4126 953.05769 284.50521 953.28449 284.82617 953.56641 C 285.14712 953.84831 285.89837 954.09188 286.44531 953.93945 C 287.53917 953.63457 287.52431 953.13329 287.65039 952.88086 C 287.77652 952.62842 287.85011 952.41342 287.93164 952.16211 C 288.09473 951.65948 288.25403 951.04012 288.44336 950.28711 C 289.20067 947.27507 290.38866 942.10536 292.42969 936.92383 C 294.47069 931.74229 297.38654 926.62813 301.28711 923.74023 C 305.18768 920.85235 309.98123 919.88178 316.99609 923.10547 C 326.43801 927.57382 333.29273 936.51142 337.96289 946.72266 C 342.6671 957.02144 345.99212 967.61653 349.82812 981.48438 L 350.83008 985.21484 C 350.83101 985.21884 350.83398 985.22061 350.83398 985.22461 L 350.83398 985.22852 C 351.03189 985.9886 351.22904 986.58817 351.5293 987.13281 C 351.68044 987.40697 351.85712 987.67764 352.16211 987.94727 C 352.46711 988.21691 352.98281 988.49514 353.57617 988.48047 C 354.16955 988.4658 354.6581 988.17431 354.94531 987.9043 C 355.23255 987.63427 355.39676 987.36715 355.53711 987.10156 C 355.81778 986.57039 355.99614 986.00176 356.16602 985.31055 C 356.84554 982.54565 357.24815 977.79371 357.26758 971.39648 C 357.30638 958.60204 355.69103 939.49161 350.50977 919.43359 A 1.6656546 1.6656546 0 0 0 350.48242 919.3457 C 346.82077 907.7575 343.00702 896.92729 337.79297 888.04883 C 332.57893 879.17037 325.89083 872.2084 316.60547 868.72266 A 1.6656546 1.6656546 0 0 0 316.41406 868.66211 C 314.97202 868.31139 313.56086 868.12877 312.18555 868.10352 z M 665.70508 992.4043 C 667.27848 993.93324 668.8903 995.51254 670.46094 997.03906 C 674.38558 1001.8821 681.79427 1010.467 685.01367 1014.2012 C 695.98025 1028.1951 713.31642 1052.6433 716.4707 1071.5078 C 716.60413 1072.7346 716.51717 1073.4646 716.19727 1074.1797 C 715.87211 1074.9064 715.2141 1075.7473 713.9082 1076.8691 C 711.29636 1079.1127 706.29441 1082.2546 698.25781 1087.7344 C 672.32063 1105.3609 651.16414 1112.0189 624.85547 1112.9902 C 614.01794 1111.8845 608.48685 1109.0628 605.56836 1106.1582 C 602.70551 1103.309 602.09205 1100.2625 601.5918 1097.5137 C 601.72153 1093.0729 601.78262 1086.8542 605.55078 1076.5391 C 609.37491 1066.0707 617.05157 1051.534 632.57227 1031.3633 L 632.58594 1031.3496 C 632.5926 1031.3416 632.59099 1031.3363 632.59766 1031.3281 C 642.23785 1019.295 654.24019 1005.6342 665.70508 992.4043 z " transform="scale(0.74999999)" id="path2"/>
  </g>
</svg>