<?xml version="1.0" encoding="UTF-8"?>
<svg xmlns="http://www.w3.org/2000/svg" width="1000pt" height="987pt" viewBox="0 0 1000 987" version="1.1">
<g id="surface520">
<path style="fill-rule:nonzero;fill:rgb(0%,0%,0%);fill-opacity:1;stroke-width:2;stroke-linecap:round;stroke-linejoin:round;stroke:rgb(0%,0%,0%);stroke-opacity:1;stroke-miterlimit:10;" d="M -73.601266 -189.29389 C -81.430241 -189.849752 -100.050443 -190.09602 -113.121407 -188.677048 L -113.121407 -218.688901 C -92.962617 -206.396612 -57.385109 -188.177476 -71.875045 -189.209456 Z M -73.601266 -189.29389 " transform="matrix(1.665488,0,0,1.665488,899.99998,888.37604)"/>
<path style="fill-rule:nonzero;fill:rgb(0%,0%,0%);fill-opacity:1;stroke-width:2;stroke-linecap:round;stroke-linejoin:round;stroke:rgb(0%,0%,0%);stroke-opacity:1;stroke-miterlimit:10;" d="M -113.121407 -188.677048 C -110.159156 -188.587922 -107.780911 -188.538669 -107.20394 -187.804556 C -76.457975 -148.950511 -51.25421 -143.520889 -29.369199 -132.614738 C -20.531698 -128.217096 -15.179475 -121.722658 -11.989719 -115.176622 C -7.690584 -105.668334 -8.7554 -96.776889 -8.133866 -98.521873 L -7.458388 -101.301183 C -6.656259 -104.967057 -5.537499 -107.870673 -4.700188 -114.869373 C -0.426852 -145.106386 -22.633184 -155.928103 -31.81077 -160.508686 C -53.693435 -171.414838 -78.559461 -176.966421 -101.361527 -211.08274 C -102.440415 -212.095956 -109.55404 -217.356708 -113.121407 -218.688901 Z M -113.121407 -188.677048 " transform="matrix(1.665488,0,0,1.665488,899.99998,888.37604)"/>
<path style="fill-rule:nonzero;fill:rgb(0%,0%,0%);fill-opacity:1;stroke-width:2;stroke-linecap:round;stroke-linejoin:round;stroke:rgb(0%,0%,0%);stroke-opacity:1;stroke-miterlimit:10;" d="M -4.620444 -123.029051 C -4.735369 -126.741834 -4.521936 -124.720091 -8.227683 -119.879167 C -10.549637 -116.994314 -14.954315 -111.327806 -24.957485 -104.596482 C -59.087876 -81.496549 -103.362161 -54.62989 -139.859069 -36.150413 C -151.025561 -30.554267 -168.862397 -25.450657 -181.942742 -34.726749 C -186.593688 -37.860216 -193.550171 -47.105818 -193.439937 -60.495758 C -194.026289 -97.869849 -169.57071 -126.261025 -167.957069 -133.172945 L -167.914851 -133.466121 C -164.828293 -146.76459 -201.902172 -97.569637 -200.525417 -50.293229 C -200.021154 -41.235259 -198.660817 -21.151522 -185.0551 -8.899106 C -174.688392 0.187008 -154.726617 -0.150731 -139.859069 -8.150921 C -101.178585 -28.818664 -59.087876 -53.497057 -24.957485 -76.59699 C -13.284384 -84.538545 -9.381624 -91.713151 -6.452208 -104.981129 C -4.153707 -114.79432 -4.641552 -121.269994 -4.568845 -122.299629 Z M -4.620444 -123.029051 " transform="matrix(1.665488,0,0,1.665488,899.99998,888.37604)"/>
<path style="fill-rule:nonzero;fill:rgb(0%,0%,0%);fill-opacity:1;stroke-width:2;stroke-linecap:round;stroke-linejoin:round;stroke:rgb(0%,0%,0%);stroke-opacity:1;stroke-miterlimit:10;" d="M -411.820965 -311.083941 C -406.473432 -306.121056 -426.193631 -311.8204 -436.872278 -314.806105 C -445.365004 -317.212495 -452.16669 -318.680721 -462.395018 -323.61077 L -462.165168 -351.610262 C -451.936839 -344.440347 -445.465856 -338.987271 -434.182094 -329.987937 C -429.45844 -325.852981 -425.715167 -323.223778 -415.49153 -314.236171 Z M -411.820965 -311.083941 " transform="matrix(1.665488,0,0,1.665488,899.99998,888.37604)"/>
<path style="fill-rule:nonzero;fill:rgb(0%,0%,0%);fill-opacity:1;stroke-width:2;stroke-linecap:round;stroke-linejoin:round;stroke:rgb(0%,0%,0%);stroke-opacity:1;stroke-miterlimit:10;" d="M -462.395018 -323.61077 C -454.840456 -318.192876 -451.65539 -316.476036 -448.836209 -312.390334 C -444.79976 -307.024038 -438.335813 -298.048158 -431.172934 -288.216204 C -392.940423 -235.289705 -311.873708 -157.161788 -237.732985 -85.103788 C -235.995037 -82.955394 -232.577776 -78.996343 -231.125968 -77.31234 C -226.153701 -70.968009 -218.226219 -59.953968 -216.746266 -51.015615 C -216.439017 -48.304322 -218.169929 -47.666371 -225.379716 -42.750393 C -237.202923 -34.715022 -247.004387 -31.628464 -259.043371 -31.196909 C -269.173192 -32.210126 -270.02223 -36.549132 -270.48193 -39.086865 C -270.362314 -43.050606 -270.390459 -51.285337 -256.303933 -69.586563 C -250.100326 -77.331103 -241.860905 -86.743229 -235.045146 -94.583931 C -211.253318 -122.88129 -77.902746 -259.557652 -52.049304 -296.000616 C -34.493917 -320.620374 -32.265779 -326.84978 -28.576451 -341.958905 L -27.314621 -348.019441 C -24.307806 -362.729846 -27.802466 -347.606649 -45.275762 -323.169833 C -71.129205 -286.726869 -203.004515 -149.848803 -228.26926 -121.753149 C -235.781605 -113.122044 -245.3884 -104.92953 -256.763633 -89.550684 C -278.341396 -59.121348 -279.485955 -35.791565 -279.478919 -24.545329 C -278.203017 -7.285465 -269.940141 -3.023857 -261.484942 -3.30296 C -249.509283 -3.741552 -239.217629 -6.788238 -227.499966 -14.830645 C -214.168661 -24.141919 -209.541169 -46.050384 -209.409827 -55.706433 C -209.048634 -74.898914 -216.908099 -86.316365 -222.014054 -93.523807 C -223.559679 -95.998213 -229.81723 -103.545739 -234.050693 -108.733784 C -311.873708 -185.16128 -392.940423 -263.289197 -431.172934 -316.215696 C -438.335813 -326.049996 -444.79976 -335.02353 -448.348364 -340.389826 C -451.378632 -344.477874 -454.469881 -346.190022 -462.165168 -351.610262 Z M -462.395018 -323.61077 " transform="matrix(1.665488,0,0,1.665488,899.99998,888.37604)"/>
<path style="fill-rule:nonzero;fill:rgb(0%,0%,0%);fill-opacity:1;stroke-width:2;stroke-linecap:round;stroke-linejoin:round;stroke:rgb(0%,0%,0%);stroke-opacity:1;stroke-miterlimit:10;" d="M -239.034687 -93.725512 C -233.035131 -109.641457 -230.225331 -140.073138 -234.294616 -190.675336 C -240.493531 -265.789403 -250.276232 -415.22948 -253.881126 -457.913578 C -255.987303 -464.743409 -257.964483 -467.489883 -259.320129 -473.212681 L -270.033957 -447.34282 C -268.073195 -443.088248 -267.158486 -438.404466 -265.322031 -433.938808 C -261.386434 -392.045113 -251.502881 -240.306535 -245.683921 -165.096306 C -241.708453 -114.470654 -242.144699 -85.289076 -239.182448 -93.296302 Z M -239.034687 -93.725512 " transform="matrix(1.665488,0,0,1.665488,899.99998,888.37604)"/>
<path style="fill-rule:nonzero;fill:rgb(0%,0%,0%);fill-opacity:1;stroke-width:2;stroke-linecap:round;stroke-linejoin:round;stroke:rgb(0%,0%,0%);stroke-opacity:1;stroke-miterlimit:10;" d="M -259.320129 -473.212681 C -247.215473 -442.644966 -233.351761 -400.181337 -239.16603 -406.849334 L -240.266027 -408.151036 C -251.781985 -421.411978 -244.288403 -414.797925 -270.033957 -447.34282 Z M -259.320129 -473.212681 " transform="matrix(1.665488,0,0,1.665488,899.99998,888.37604)"/>
<path style="fill-rule:nonzero;fill:rgb(0%,0%,0%);fill-opacity:1;stroke-width:2;stroke-linecap:round;stroke-linejoin:round;stroke:rgb(0%,0%,0%);stroke-opacity:1;stroke-miterlimit:10;" d="M -234.986511 -119.428848 C -260.964261 -74.474395 -364.621955 -12.722123 -417.449946 -37.093267 C -451.409122 -52.758253 -459.193535 -84.977136 -457.894178 -109.897106 C -457.239809 -126.035865 -451.932149 -144.688903 -449.312327 -154.661582 L -448.951134 -156.207206 C -444.748161 -171.759613 -465.286907 -136.918563 -466.225071 -91.281596 C -466.93573 -55.969118 -456.271155 -25.18328 -422.311979 -9.518294 C -369.483988 14.850505 -265.826294 -46.899422 -239.848544 -91.853875 Z M -234.986511 -119.428848 " transform="matrix(1.665488,0,0,1.665488,899.99998,888.37604)"/>
<path style="fill-rule:nonzero;fill:rgb(0%,0%,0%);fill-opacity:1;stroke-width:1.5;stroke-linecap:round;stroke-linejoin:round;stroke:rgb(0%,0%,0%);stroke-opacity:1;stroke-miterlimit:10;" d="M -130.559523 -337.519045 C -129.45249 -342.435023 -130.568904 -338.600279 -126.424567 -330.839321 C -121.785348 -322.724206 -116.712228 -317.770702 -120.094308 -307.479048 C -123.914979 -294.647315 -135.177633 -296.847309 -138.934978 -300.419367 C -143.424091 -303.855391 -142.239659 -316.628488 -149.517463 -329.443802 L -147.854568 -335.361269 C -142.781449 -330.135698 -142.265459 -312.036177 -136.054816 -308.328086 C -132.456959 -305.494832 -124.944614 -306.055384 -122.409227 -309.582879 C -121.229486 -316.576889 -127.512837 -320.294362 -130.306219 -326.666838 C -131.605575 -328.892631 -131.835425 -331.357656 -131.06144 -334.659992 Z M -130.559523 -337.519045 " transform="matrix(1.665488,0,0,1.665488,899.99998,888.37604)"/>
<path style="fill-rule:nonzero;fill:rgb(0%,0%,0%);fill-opacity:1;stroke-width:1.5;stroke-linecap:round;stroke-linejoin:round;stroke:rgb(0%,0%,0%);stroke-opacity:1;stroke-miterlimit:10;" d="M -149.517463 -329.443802 C -146.032186 -322.151926 -141.034119 -312.45366 -144.336455 -306.475213 C -150.739422 -296.350082 -160.641738 -299.528111 -163.245142 -303.344092 C -169.854504 -312.77029 -161.162419 -327.874724 -167.813999 -329.708834 C -173.647031 -330.935483 -181.447861 -323.080708 -183.396896 -314.013357 C -184.590709 -309.378829 -184.76896 -303.925753 -183.868323 -298.521931 L -183.622055 -297.044323 C -182.885597 -292.609155 -182.733145 -303.935135 -180.204794 -310.678185 C -177.901603 -317.045971 -173.536797 -320.437432 -170.023374 -320.655555 C -165.848546 -319.597776 -172.06388 -308.656443 -165.686713 -296.807437 C -163.137253 -290.627284 -148.790387 -282.111104 -141.939447 -303.96328 C -138.379116 -312.563894 -144.366945 -328.071738 -147.854568 -335.361269 Z M -149.517463 -329.443802 " transform="matrix(1.665488,0,0,1.665488,899.99998,888.37604)"/>
<path style="fill-rule:nonzero;fill:rgb(0%,0%,0%);fill-opacity:1;stroke-width:1.5;stroke-linecap:round;stroke-linejoin:round;stroke:rgb(0%,0%,0%);stroke-opacity:1;stroke-miterlimit:10;" d="M -183.868323 -298.521931 C -183.858941 -298.46095 -183.847214 -298.39997 -183.837833 -298.341334 L -183.664272 -297.307009 C -183.6502 -297.215538 -183.636128 -297.126412 -183.622055 -297.044323 Z M -183.868323 -298.521931 " transform="matrix(1.665488,0,0,1.665488,899.99998,888.37604)"/>
<path style="fill-rule:nonzero;fill:rgb(0%,0%,0%);fill-opacity:1;stroke-width:1.5;stroke-linecap:round;stroke-linejoin:round;stroke:rgb(0%,0%,0%);stroke-opacity:1;stroke-miterlimit:10;" d="M -179.632514 -200.716032 C -187.684303 -196.656129 -172.699486 -208.4465 -170.178171 -210.82709 C -164.307612 -216.230912 -159.696538 -222.366502 -157.245586 -227.019793 C -153.239627 -234.701008 -154.841542 -238.465389 -166.995451 -233.026386 C -227.929176 -206.1222 -293.832822 -208.197887 -321.46643 -236.551535 L -317.875609 -246.418671 C -289.52196 -219.322161 -219.391887 -221.465865 -164.270086 -245.832319 C -148.241561 -253.159376 -147.315124 -243.503328 -150.978653 -231.513597 C -153.237282 -225.197411 -160.329799 -215.435819 -166.920398 -209.750547 C -170.34235 -207.01111 -173.780719 -203.54225 -178.070472 -201.506435 Z M -179.632514 -200.716032 " transform="matrix(1.665488,0,0,1.665488,899.99998,888.37604)"/>
<path style="fill-rule:nonzero;fill:rgb(0%,0%,0%);fill-opacity:1;stroke-width:1.5;stroke-linecap:round;stroke-linejoin:round;stroke:rgb(0%,0%,0%);stroke-opacity:1;stroke-miterlimit:10;" d="M -321.46643 -236.551535 C -311.639167 -224.071614 -307.372868 -216.064388 -305.679482 -209.387009 C -304.670957 -205.399814 -305.32298 -196.925851 -303.995479 -200.814539 L -302.900173 -203.127112 C -300.918302 -207.590426 -299.783124 -212.998939 -300.44453 -217.410653 C -301.652415 -225.692292 -308.048346 -233.936404 -317.875609 -246.418671 Z M -321.46643 -236.551535 " transform="matrix(1.665488,0,0,1.665488,899.99998,888.37604)"/>
<path style="fill-rule:nonzero;fill:rgb(0%,0%,0%);fill-opacity:1;stroke-width:2.5;stroke-linecap:round;stroke-linejoin:round;stroke:rgb(0%,0%,0%);stroke-opacity:1;stroke-miterlimit:10;" d="M -336.244852 -317.486908 C -318.093732 -320.512485 -293.445829 -317.125715 -287.760558 -312.418479 L -298.833234 -292.766297 C -305.442596 -296.863727 -327.761508 -300.088664 -349.240763 -295.766075 Z M -336.244852 -317.486908 " transform="matrix(1.665488,0,0,1.665488,899.99998,888.37604)"/>
<path style="fill-rule:nonzero;fill:rgb(0%,0%,0%);fill-opacity:1;stroke-width:2.5;stroke-linecap:round;stroke-linejoin:round;stroke:rgb(0%,0%,0%);stroke-opacity:1;stroke-miterlimit:10;" d="M -287.760558 -312.418479 C -293.828131 -301.303586 -301.884611 -293.819386 -315.337877 -287.0177 C -322.059819 -283.708328 -328.788797 -280.605352 -337.9828 -277.157601 C -345.41071 -274.251639 -347.455907 -273.590234 -351.475938 -272.143116 L -351.811331 -272.028191 C -356.19021 -270.487258 -346.527125 -272.457401 -338.222032 -273.461236 C -328.873232 -274.329037 -318.382217 -275.482979 -314.974338 -276.679137 C -309.138961 -279.057382 -301.811903 -287.747122 -298.833234 -292.766297 Z M -287.760558 -312.418479 " transform="matrix(1.665488,0,0,1.665488,899.99998,888.37604)"/>
<path style="fill-rule:nonzero;fill:rgb(0%,0%,0%);fill-opacity:1;stroke-width:2;stroke-linecap:round;stroke-linejoin:round;stroke:rgb(0%,0%,0%);stroke-opacity:1;stroke-miterlimit:10;" d="M -421.272963 -212.180391 C -427.239683 -221.32514 -431.571654 -223.119378 -434.831772 -220.43623 C -443.596565 -213.202989 -443.995285 -174.81099 -449.446015 -159.263274 L -446.887174 -161.369451 C -441.436444 -176.917167 -442.61853 -204.731372 -435.901278 -209.788074 C -433.436254 -211.650329 -429.817288 -210.616003 -424.192997 -205.050348 Z M -421.272963 -212.180391 " transform="matrix(1.665488,0,0,1.665488,899.99998,888.37604)"/>
<path style="fill-rule:nonzero;fill:rgb(0%,0%,0%);fill-opacity:1;stroke-width:2;stroke-linecap:round;stroke-linejoin:round;stroke:rgb(0%,0%,0%);stroke-opacity:1;stroke-miterlimit:10;" d="M -449.446015 -159.263274 C -454.202505 -182.367898 -463.548959 -203.872952 -478.259364 -207.346503 C -478.754245 -207.083817 -479.152965 -206.671025 -479.425032 -206.15269 L -475.480055 -213.507892 C -475.271313 -213.892539 -474.952338 -214.206824 -474.534855 -214.427293 C -454.659859 -211.962268 -447.044316 -176.795206 -446.887174 -161.369451 Z M -449.446015 -159.263274 " transform="matrix(1.665488,0,0,1.665488,899.99998,888.37604)"/>
<path style="fill-rule:nonzero;fill:rgb(0%,0%,0%);fill-opacity:1;stroke-width:2;stroke-linecap:round;stroke-linejoin:round;stroke:rgb(0%,0%,0%);stroke-opacity:1;stroke-miterlimit:10;" d="M -479.425032 -206.15269 C -480.95893 -203.232656 -478.580685 -196.944614 -467.85513 -194.899418 L -462.263675 -202.77061 C -473.291788 -204.874442 -476.927172 -210.862271 -475.480055 -213.507892 Z M -479.425032 -206.15269 " transform="matrix(1.665488,0,0,1.665488,899.99998,888.37604)"/>
<path style="fill-rule:nonzero;fill:rgb(0%,0%,0%);fill-opacity:1;stroke-width:1.5;stroke-linecap:round;stroke-linejoin:round;stroke:rgb(0%,0%,0%);stroke-opacity:1;stroke-miterlimit:10;" d="M -107.729312 -131.613248 C -108.343809 -136.12816 -107.691786 -132.28638 -109.78389 -126.000684 C -111.596891 -121.138652 -114.233131 -119.736097 -115.391763 -119.20838 C -117.648047 -118.162328 -121.04889 -117.819898 -123.649948 -120.693024 C -127.254842 -124.788108 -127.074245 -131.162929 -126.506656 -136.311102 C -125.702181 -143.211295 -121.386628 -155.806141 -119.395376 -163.553027 C -117.504977 -170.528273 -118.304761 -175.892224 -119.088128 -171.708014 L -119.078746 -171.764304 C -119.84804 -167.931906 -122.162959 -161.618065 -123.588967 -157.612106 C -127.630107 -147.029621 -132.100457 -135.377629 -132.588302 -126.882558 C -133.32476 -118.786206 -131.047368 -111.946994 -126.539492 -107.39221 C -123.291101 -104.103946 -118.832478 -103.6677 -114.043153 -107.978562 C -110.90265 -111.123755 -108.442316 -116.82779 -107.846583 -122.88129 C -107.218013 -126.169554 -107.576861 -130.658666 -107.780911 -132.037767 Z M -107.729312 -131.613248 " transform="matrix(1.665488,0,0,1.665488,899.99998,888.37604)"/>
<path style="fill-rule:nonzero;fill:rgb(0%,0%,0%);fill-opacity:1;stroke-width:2;stroke-linecap:round;stroke-linejoin:round;stroke:rgb(0%,0%,0%);stroke-opacity:1;stroke-miterlimit:10;" d="M -356.701509 -91.274559 C -356.011959 -97.75727 -357.243298 -90.045565 -360.815356 -85.146006 C -364.063748 -80.910197 -372.79336 -79.556896 -377.695264 -82.211899 C -382.05538 -84.524472 -387.667943 -90.514647 -388.42551 -100.895427 C -389.734249 -116.030351 -382.207831 -132.600665 -376.008915 -151.319374 C -372.664362 -160.799517 -370.046886 -170.93872 -369.624712 -173.356837 L -369.136867 -175.777299 C -366.662461 -192.122454 -373.417238 -164.111234 -379.946857 -149.57439 C -387.621035 -130.846299 -397.8306 -108.703293 -397.094142 -89.435759 C -396.629751 -80.347299 -393.967712 -69.136244 -383.099087 -63.77933 C -377.608484 -61.680189 -367.755421 -60.641173 -362.178039 -71.380801 C -359.703632 -75.926203 -357.445003 -85.335984 -356.811743 -90.413794 Z M -356.701509 -91.274559 " transform="matrix(1.665488,0,0,1.665488,899.99998,888.37604)"/>
<path style="fill-rule:nonzero;fill:rgb(0%,0%,0%);fill-opacity:1;stroke-width:2;stroke-linecap:round;stroke-linejoin:round;stroke:rgb(0%,0%,0%);stroke-opacity:1;stroke-miterlimit:10;" d="M -40.751469 -426.262284 C -63.405774 -417.678087 -189.09624 -371.271826 -218.922805 -359.884865 C -227.495275 -356.603638 -231.306565 -354.931362 -231.906989 -353.195759 L -236.12638 -341.600057 C -234.214872 -343.797705 -231.717011 -345.007936 -223.142196 -348.289163 C -193.451664 -359.687851 -67.625164 -406.082385 -44.973205 -414.666582 Z M -40.751469 -426.262284 " transform="matrix(1.665488,0,0,1.665488,899.99998,888.37604)"/>
<path style="fill-rule:nonzero;fill:rgb(0%,0%,0%);fill-opacity:1;stroke-width:2;stroke-linecap:round;stroke-linejoin:round;stroke:rgb(0%,0%,0%);stroke-opacity:1;stroke-miterlimit:10;" d="M -206.489792 -396.344247 C -229.141752 -387.760051 -354.832218 -341.353789 -384.658784 -329.969174 C -393.233599 -326.685602 -397.044888 -325.01567 -397.645313 -323.277722 L -401.864704 -311.68202 C -399.95085 -313.879669 -397.452989 -315.0899 -388.88052 -318.373472 C -359.189988 -329.769814 -233.363488 -376.164349 -210.711528 -384.748546 Z M -206.489792 -396.344247 " transform="matrix(1.665488,0,0,1.665488,899.99998,888.37604)"/>
</g>
</svg>
