<?xml version="1.0" encoding="utf-8"?>
<svg viewBox="82.779 82.518 828.171 825.499" xmlns="http://www.w3.org/2000/svg">
  <defs>
    <radialGradient gradientUnits="userSpaceOnUse" cx="662.584" cy="656.776" r="530.386" id="gradient-1" spreadMethod="repeat" gradientTransform="matrix(0.074327, -0.148156, 0.67037, 0.33631, 7.408157, 369.865917)">
      <stop offset="0" style="stop-color: rgba(12, 62, 63, 1)"/>
      <stop offset="1" style="stop-color: rgb(22, 89, 90);"/>
    </radialGradient>
    <radialGradient gradientUnits="userSpaceOnUse" cx="596.893" cy="609.097" r="412.557" id="gradient-2" spreadMethod="reflect" gradientTransform="matrix(0.133738, -0.000661, 0.000936, 0.189497, 516.495514, 494.069488)">
      <stop offset="0" style="stop-color: rgba(12, 62, 63, 1)"/>
      <stop offset="1" style="stop-color: rgba(0, 0, 0, 1)"/>
    </radialGradient>
  </defs>
  <g>
    <g id="surface15">
      <path style="opacity: 1; vector-effect: none; fill-rule: nonzero; stroke-width: 4.4413; stroke-linecap: round; stroke-linejoin: round; stroke-miterlimit: 10; stroke-dasharray: none; stroke-dashoffset: 0; fill: url(#gradient-1); paint-order: fill;" d="M 468.095 98.58 C 468.075 98.581 468.054 98.582 468.034 98.584 C 468.023 98.584 468.012 98.584 468.001 98.584 C 467.991 98.585 467.98 98.586 467.969 98.587 C 467.943 98.589 467.916 98.592 467.89 98.596 C 467.86 98.599 467.829 98.604 467.799 98.609 C 467.771 98.615 467.743 98.621 467.714 98.628 C 467.69 98.634 467.665 98.64 467.641 98.647 C 467.614 98.655 467.587 98.664 467.561 98.673 C 467.532 98.683 467.504 98.694 467.476 98.706 C 467.455 98.714 467.435 98.723 467.416 98.732 C 467.385 98.746 467.355 98.76 467.325 98.776 C 467.303 98.787 467.282 98.799 467.262 98.811 C 467.236 98.826 467.212 98.842 467.187 98.858 C 467.165 98.873 467.143 98.889 467.121 98.905 C 467.097 98.922 467.074 98.939 467.051 98.958 C 467.031 98.974 467.012 98.99 466.994 99.007 C 466.972 99.027 466.95 99.047 466.929 99.067 C 466.909 99.088 466.889 99.11 466.869 99.132 C 466.852 99.151 466.836 99.17 466.819 99.189 C 466.799 99.214 466.78 99.24 466.761 99.267 C 466.749 99.283 466.737 99.3 466.726 99.316 C 466.708 99.342 466.691 99.369 466.674 99.396 C 466.66 99.421 466.645 99.446 466.632 99.472 C 466.615 99.503 466.6 99.536 466.585 99.568 C 466.578 99.581 466.572 99.595 466.566 99.608 L 448.724 142.696 C 448.682 142.799 448.65 142.905 448.629 143.014 C 448.608 143.123 448.597 143.234 448.598 143.345 C 448.6 143.581 448.652 143.815 448.751 144.029 C 451.861 150.779 453.408 158.441 456.463 165.977 C 461.188 216.327 471.049 361.443 479.823 485.574 C 474.868 485.839 469.958 485.997 465.113 486.031 C 418.725 486.354 378.017 475.946 354.79 453.749 C 354.268 453.249 353.433 453.295 352.969 453.848 C 352.957 453.862 352.946 453.876 352.935 453.891 C 352.922 453.908 352.909 453.925 352.897 453.943 C 352.887 453.957 352.877 453.972 352.868 453.986 C 352.854 454.008 352.841 454.03 352.828 454.053 C 352.82 454.069 352.811 454.085 352.803 454.102 C 352.792 454.125 352.781 454.149 352.771 454.173 C 352.768 454.18 352.765 454.187 352.762 454.194 C 352.758 454.204 352.754 454.213 352.751 454.223 L 346.771 470.657 C 346.625 471.057 346.693 471.504 346.951 471.842 C 346.956 471.848 346.96 471.853 346.964 471.858 C 363.283 492.578 370.273 505.768 373.025 516.634 C 373.8 519.688 373.98 524.874 374.197 528.461 C 374.252 529.358 374.31 530.158 374.389 530.83 C 374.468 531.502 374.517 531.999 374.773 532.56 C 374.901 532.841 375.127 533.328 375.847 533.484 C 376.207 533.563 376.587 533.468 376.825 533.338 C 377.064 533.207 377.204 533.061 377.316 532.928 C 377.743 532.419 377.92 531.901 378.19 531.108 L 379.997 527.287 C 380.001 527.278 380.005 527.27 380.01 527.262 C 383.39 519.646 385.35 510.485 384.196 502.783 L 384.196 502.78 C 383.835 500.308 383.206 497.85 382.339 495.368 C 403.075 504.254 428.191 509.08 455.754 509.78 C 464.127 509.993 472.729 509.82 481.503 509.268 C 484.272 548.175 486.906 584.471 489.155 613.538 C 489.155 613.539 489.155 613.54 489.155 613.541 C 491.532 643.805 492.946 669.233 494.032 689.087 C 374.743 572.081 253.786 454.339 190.688 370.819 C 194.982 371.941 199.204 372.981 202.922 373.764 C 207.635 374.756 211.426 375.384 214.011 375.145 C 214.657 375.085 215.245 374.983 215.846 374.681 C 216.447 374.378 217.127 373.686 217.258 372.832 C 217.39 371.978 217.082 371.293 216.718 370.721 C 216.353 370.15 215.871 369.626 215.25 369.05 C 215.234 369.035 215.218 369.021 215.202 369.007 L 209.102 363.771 L 209.09 363.757 C 192.05 348.778 185.772 344.359 177.973 337.532 C 177.954 337.516 177.934 337.5 177.914 337.484 C 166.825 328.64 158.509 321.847 150.041 315.293 C 145.802 311.271 140.443 307.901 131.228 301.411 C 131.227 301.41 131.226 301.41 131.225 301.409 C 131.194 301.388 131.162 301.368 131.13 301.349 C 131.114 301.339 131.099 301.329 131.083 301.32 C 131.036 301.294 130.987 301.27 130.938 301.248 C 130.473 301.044 129.94 301.063 129.491 301.301 C 129.489 301.302 129.488 301.303 129.486 301.304 C 129.39 301.355 129.299 301.415 129.214 301.484 C 129.212 301.485 129.211 301.487 129.21 301.488 C 129.125 301.558 129.047 301.635 128.978 301.72 C 128.977 301.721 128.976 301.723 128.975 301.724 C 128.906 301.81 128.845 301.903 128.793 302.001 C 128.793 302.002 128.793 302.002 128.792 302.002 C 128.789 302.009 128.786 302.016 128.783 302.023 C 128.737 302.114 128.699 302.208 128.67 302.306 C 128.67 302.307 128.669 302.309 128.669 302.31 C 128.654 302.362 128.641 302.414 128.631 302.467 C 128.63 302.469 128.63 302.471 128.629 302.473 C 128.62 302.526 128.613 302.579 128.609 302.632 C 128.605 302.674 128.603 302.716 128.603 302.758 L 128.222 349.392 C 128.217 349.931 128.474 350.439 128.911 350.755 C 128.912 350.756 128.914 350.757 128.915 350.758 C 128.919 350.761 128.922 350.763 128.925 350.766 C 128.944 350.779 128.962 350.792 128.981 350.805 C 141.556 359.82 146.619 362.55 151.097 369.04 C 151.111 369.058 151.125 369.077 151.14 369.095 C 157.839 378.002 168.609 392.956 180.542 409.336 C 240.311 492.073 362.25 611.105 478.85 724.402 C 452.02 751.639 413.68 779.211 372.708 799.844 C 313.37 829.726 248.57 844.981 205.44 825.084 C 149.582 799.317 136.902 746.513 139.044 705.429 C 139.045 705.423 139.046 705.417 139.047 705.41 C 140.125 678.844 148.912 647.862 153.286 631.211 C 153.29 631.197 153.295 631.183 153.299 631.169 L 153.901 628.592 L 153.883 628.648 C 154.333 626.984 154.627 625.639 154.775 624.549 C 154.884 623.752 154.963 623.125 154.865 622.475 L 156.773 620.903 C 156.816 620.868 156.857 620.83 156.897 620.791 C 156.936 620.751 156.973 620.71 157.008 620.668 C 157.008 620.667 157.008 620.667 157.008 620.666 C 157.078 620.58 157.139 620.487 157.191 620.389 C 157.222 620.329 157.249 620.267 157.273 620.203 C 157.278 620.191 157.283 620.179 157.288 620.167 C 161.942 606.891 163.689 588.791 165.725 572.958 C 166.743 565.041 167.828 557.697 169.323 551.905 C 170.817 546.112 172.82 541.958 175.012 540.308 C 175.013 540.307 175.014 540.306 175.015 540.305 C 176.637 539.08 178.382 538.778 181.203 539.84 C 184.023 540.903 187.747 543.505 192.34 548.051 C 193.183 548.885 194.604 548.595 195.053 547.497 L 199.916 535.625 C 200.124 535.118 200.069 534.541 199.77 534.082 C 194.727 526.354 190.357 521.609 186.208 519.278 C 184.134 518.113 182.051 517.637 180.092 517.775 C 178.134 517.914 176.303 518.665 174.735 519.955 C 174.734 519.956 174.733 519.957 174.732 519.958 C 170.53 523.426 167.796 529.934 165.504 538.154 C 163.212 546.374 161.472 556.352 159.905 566.741 C 158.306 577.348 156.873 588.398 155.269 598.351 C 153.538 588.238 150.695 577.09 146.552 566.723 C 142.831 557.414 138.063 548.739 132.025 542.06 C 125.987 535.38 118.615 530.681 109.872 529.597 C 109.817 529.59 109.762 529.586 109.707 529.585 L 109.707 529.584 C 109.423 529.577 109.142 529.643 108.891 529.775 C 107.989 530.252 107.246 530.965 106.739 531.817 C 106.7 531.87 106.664 531.925 106.632 531.981 C 106.632 531.981 106.632 531.983 106.632 531.983 C 106.631 531.984 106.63 531.986 106.629 531.987 C 106.628 531.99 106.627 531.992 106.626 531.995 L 100.055 544.245 L 100.056 544.245 L 100.056 544.247 C 100.054 544.251 100.051 544.254 100.049 544.258 C 100.021 544.31 99.996 544.363 99.974 544.417 C 98.403 547.588 99.035 552.005 102.199 555.984 C 105.416 560.029 111.263 563.65 120.48 565.408 C 121.121 565.531 121.774 565.269 122.152 564.738 L 125.082 560.613 C 127.613 563.891 129.995 567.573 132.217 571.625 C 139.908 585.65 145.683 603.716 149.618 622.501 C 147.121 625.822 143.51 633.016 139.545 643.475 C 131.611 664.409 122.629 698.068 121.843 736.313 C 121.843 736.314 121.843 736.314 121.843 736.315 C 121.247 765.899 125.407 793.684 136.923 817.433 C 148.44 841.181 167.352 860.846 195.948 874.037 C 240.802 894.728 306.312 878.854 366.107 848.742 C 392.206 835.599 417.223 819.729 438.958 802.859 C 433.407 822.425 432.861 837.727 432.867 847.496 C 432.867 847.537 432.868 847.579 432.87 847.62 C 433.951 862.247 438.022 871.653 443.871 877.335 C 449.72 883.016 457.218 884.782 464.556 884.54 C 464.557 884.54 464.558 884.54 464.559 884.54 C 484.751 883.801 502.315 878.59 522.044 865.049 C 522.047 865.045 522.051 865.042 522.054 865.039 C 533.584 856.985 541.176 843.685 545.977 830.418 C 550.775 817.156 552.781 803.919 552.895 795.628 L 552.895 795.621 C 553.502 763.255 540.17 743.758 531.65 731.731 C 530.231 729.459 527.012 725.346 523.194 720.596 C 522.683 719.961 522.152 719.326 521.625 718.674 C 548.459 688.678 603.581 630.552 660.853 569.344 C 726.717 498.952 792.926 427.007 814.67 396.357 L 814.67 396.355 C 843.945 355.299 847.867 344.452 854.023 319.241 C 854.028 319.223 854.032 319.205 854.036 319.187 L 856.138 309.092 C 856.139 309.091 856.14 309.09 856.141 309.089 C 856.768 306.023 857.226 303.729 857.498 302.102 C 857.633 301.288 857.722 300.648 857.761 300.108 C 857.781 299.839 857.79 299.596 857.77 299.328 C 857.75 299.06 857.771 298.762 857.429 298.244 C 857.257 297.985 856.919 297.659 856.477 297.519 C 856.034 297.378 855.597 297.448 855.321 297.548 C 854.769 297.747 854.605 297.977 854.427 298.169 C 854.073 298.552 853.824 298.947 853.497 299.483 C 852.842 300.554 851.993 302.127 850.875 304.21 C 846.403 312.542 837.725 328.91 823.238 349.17 C 823.237 349.173 823.236 349.175 823.235 349.178 C 801.909 379.237 736.164 451.53 670.622 521.949 C 605.079 592.368 539.684 661.016 518.581 684.483 C 518.575 684.49 518.569 684.497 518.564 684.504 C 516.656 686.695 514.523 688.989 512.306 691.318 C 515.48 662.48 515.659 623.053 511.447 570.674 C 511.446 570.673 511.445 570.672 511.444 570.671 C 509.894 551.88 508.197 530.075 506.432 506.717 C 538.769 502.173 572.681 492.689 605.723 478.1 C 605.725 478.099 605.727 478.098 605.729 478.097 C 610.731 475.859 614.618 474.589 617.433 474.132 C 620.248 473.674 621.866 474.065 622.616 474.71 C 623.365 475.356 623.682 476.5 623.347 478.523 C 623.011 480.547 621.979 483.251 620.345 486.382 C 616.353 493.961 608.74 504.11 599.067 513.01 C 599.064 513.014 599.061 513.017 599.058 513.021 C 597.11 514.86 589.736 520.841 584.605 525.439 C 583.322 526.589 582.176 527.659 581.265 528.579 C 580.354 529.499 579.693 530.198 579.283 530.95 C 579.18 531.138 579.088 531.335 579.032 531.617 C 578.977 531.899 578.968 532.345 579.24 532.756 C 579.513 533.167 579.965 533.35 580.269 533.399 C 580.573 533.448 580.805 533.42 581.036 533.38 C 581.961 533.221 583.017 532.75 584.732 531.885 L 587.304 530.583 L 587.314 530.575 C 594.717 527.059 600.512 521.193 606.126 516.699 C 606.137 516.689 606.148 516.679 606.158 516.669 C 617.331 507.028 629.163 490.814 633.07 479.899 C 633.077 479.88 633.084 479.86 633.089 479.84 C 636.174 469.738 637.566 460.529 634.198 454.849 C 632.514 452.009 629.485 450.26 625.371 450.148 L 625.37 450.148 C 621.256 450.036 616.011 451.397 609.239 454.494 C 576.167 469.11 539.814 478.906 504.68 483.334 C 497.54 387.12 489.466 268.981 483.788 190.743 C 487.543 196.258 489.913 199.715 498.582 209.697 L 500.399 211.85 C 500.405 211.857 500.411 211.863 500.417 211.869 C 501.112 212.666 501.62 213.296 502.752 213.548 C 503.318 213.674 504.152 213.513 504.652 213.079 C 505.152 212.645 505.335 212.156 505.449 211.726 C 505.903 210.003 505.556 208.04 504.983 205.034 C 503.837 199.023 501.22 189.626 497.67 178.27 C 490.571 155.558 479.751 125.132 469.654 99.634 C 469.642 99.605 469.629 99.576 469.616 99.548 C 469.613 99.543 469.611 99.537 469.608 99.532 C 469.592 99.499 469.575 99.467 469.557 99.435 C 469.545 99.414 469.533 99.393 469.521 99.372 C 469.505 99.347 469.488 99.322 469.471 99.297 C 469.456 99.276 469.441 99.255 469.425 99.234 C 469.406 99.209 469.386 99.184 469.365 99.16 C 469.352 99.144 469.338 99.129 469.324 99.114 C 469.302 99.09 469.278 99.066 469.254 99.043 C 469.234 99.023 469.213 99.005 469.192 98.987 C 469.177 98.973 469.161 98.96 469.146 98.947 C 469.111 98.919 469.074 98.892 469.037 98.867 C 469.03 98.862 469.023 98.858 469.015 98.854 C 468.983 98.832 468.95 98.812 468.917 98.793 C 468.899 98.783 468.881 98.774 468.863 98.764 C 468.833 98.749 468.803 98.735 468.772 98.722 C 468.745 98.71 468.719 98.7 468.691 98.689 C 468.674 98.682 468.656 98.676 468.639 98.669 C 468.598 98.656 468.557 98.644 468.516 98.634 C 468.502 98.63 468.488 98.627 468.475 98.624 C 468.443 98.616 468.411 98.61 468.379 98.605 C 468.353 98.6 468.327 98.596 468.3 98.593 C 468.27 98.589 468.239 98.586 468.208 98.584 C 468.186 98.583 468.163 98.582 468.141 98.581 C 468.126 98.58 468.11 98.58 468.095 98.58 Z M 696.508 241.214 C 696.328 241.213 696.16 241.243 696.029 241.286 L 696.029 241.285 C 695.769 241.372 695.607 241.49 695.47 241.598 C 695.196 241.815 695.01 242.037 694.8 242.3 C 694.381 242.826 693.912 243.52 693.311 244.389 C 690.905 247.865 686.519 254.047 678.757 259.462 C 657.058 274.306 604.596 306.367 581.489 321.817 C 564.556 333.016 560.999 344.294 559.692 353.191 C 559.69 353.199 559.689 353.207 559.688 353.215 C 559.687 353.216 559.688 353.217 559.688 353.218 C 559.685 353.238 559.68 353.256 559.677 353.276 L 558.073 364.213 L 557.996 364.736 L 557.98 364.846 L 557.98 364.847 C 557.979 364.852 557.978 364.858 557.977 364.863 C 557.976 364.867 557.976 364.871 557.975 364.875 C 557.654 367.051 557.437 368.635 557.348 369.762 C 557.303 370.328 557.288 370.773 557.323 371.187 C 557.359 371.601 557.302 372.159 558.081 372.65 C 558.47 372.896 558.999 372.893 559.304 372.794 C 559.609 372.695 559.785 372.558 559.941 372.429 C 560.254 372.172 560.487 371.891 560.764 371.539 C 561.319 370.833 561.989 369.85 562.843 368.626 C 566.258 363.731 572.537 355.019 582.877 348.043 L 582.88 348.04 C 605.862 332.677 658.297 300.64 680.162 285.678 L 680.178 285.668 C 684.908 282.54 688.826 279.566 691.707 275.438 C 694.59 271.305 696.366 266.073 696.957 258.643 L 696.957 258.64 L 697.932 246.992 C 697.932 246.985 697.932 246.978 697.932 246.971 C 698.031 245.485 698.09 244.407 698.076 243.605 C 698.069 243.204 698.048 242.876 697.972 242.534 C 697.895 242.192 697.782 241.636 697.061 241.324 C 696.88 241.246 696.688 241.216 696.508 241.214 Z M 384.259 253.91 C 384.078 253.909 383.911 253.937 383.78 253.981 L 383.78 253.982 C 383.52 254.069 383.361 254.185 383.224 254.294 C 382.95 254.511 382.764 254.732 382.554 254.996 C 382.135 255.522 381.662 256.218 381.06 257.087 C 378.654 260.564 374.269 266.746 366.51 272.159 C 344.807 287.007 292.345 319.067 269.238 334.513 C 252.289 345.727 248.742 357.016 247.434 365.917 L 245.824 376.912 L 245.823 376.913 C 245.822 376.914 245.822 376.914 245.821 376.915 C 245.79 377.127 245.761 377.334 245.73 377.539 L 245.73 377.546 C 245.407 379.738 245.189 381.33 245.099 382.462 C 245.054 383.028 245.037 383.471 245.073 383.886 C 245.109 384.3 245.052 384.86 245.83 385.351 C 246.219 385.596 246.753 385.592 247.058 385.493 C 247.363 385.394 247.535 385.258 247.692 385.129 C 248.005 384.872 248.241 384.59 248.518 384.237 C 249.073 383.532 249.74 382.551 250.594 381.327 C 254.008 376.431 260.288 367.717 270.628 360.741 L 270.631 360.738 C 293.613 345.372 346.047 313.334 367.916 298.377 L 367.932 298.367 C 372.662 295.239 376.576 292.261 379.456 288.133 C 382.338 284.002 384.117 278.77 384.708 271.342 L 384.708 271.335 L 385.686 259.686 C 385.686 259.679 385.686 259.671 385.686 259.664 C 385.785 258.178 385.844 257.098 385.83 256.296 C 385.823 255.896 385.802 255.572 385.726 255.23 C 385.649 254.888 385.536 254.331 384.814 254.02 C 384.634 253.942 384.44 253.911 384.259 253.91 Z M 711.854 317.341 C 711.536 317.369 711.236 317.51 711.075 317.644 C 710.86 317.823 710.778 317.974 710.71 318.097 C 710.439 318.588 710.393 318.935 710.249 319.541 C 710.104 320.147 709.932 320.939 709.702 321.957 C 709.698 321.976 709.695 321.996 709.692 322.015 L 708.869 326.707 C 707.539 332.38 707.937 336.912 710.254 340.903 C 712.685 346.392 716.502 350.642 719.369 354.848 C 722.183 358.978 724.044 362.95 723.283 368.184 C 721.44 370.57 717.74 372.186 713.689 372.533 C 709.536 372.889 705.175 371.941 702.542 369.866 C 702.5 369.833 702.455 369.802 702.409 369.775 C 700.201 368.457 698.285 365.653 696.667 361.935 C 695.048 358.217 693.717 353.642 692.439 348.957 C 689.882 339.586 687.726 329.807 683.014 324.954 C 682.428 324.348 681.422 324.485 681.019 325.226 C 681.018 325.229 681.016 325.231 681.015 325.233 C 680.979 325.301 680.949 325.372 680.927 325.446 C 680.924 325.455 680.921 325.464 680.918 325.474 C 680.917 325.478 680.915 325.482 680.914 325.487 L 678.145 335.347 C 678.111 335.467 678.096 335.592 678.1 335.717 C 678.104 335.892 678.145 336.063 678.22 336.221 C 679.88 339.694 681.728 343.477 683.399 347.32 C 685.787 353.632 687.259 359.692 688.484 365.104 C 688.629 368.176 688.174 370.967 686.892 373.304 C 681.752 381.406 675.445 384.012 669.86 384.003 C 664.265 383.994 659.359 381.149 657.516 378.447 C 657.512 378.442 657.509 378.438 657.505 378.434 C 652.329 371.052 653.093 361.196 653.95 352.576 C 654.379 348.266 654.83 344.306 654.428 341.029 C 654.226 339.39 653.806 337.901 652.964 336.661 C 652.123 335.42 650.837 334.488 649.207 334.039 C 649.182 334.031 649.157 334.025 649.132 334.02 C 643.64 332.865 637.631 335.919 632.585 341 C 627.545 346.075 623.39 353.29 621.708 361.096 C 619.676 369.005 619.379 378.223 620.899 387.365 C 620.899 387.368 620.9 387.371 620.9 387.374 C 620.901 387.379 620.902 387.384 620.903 387.39 L 621.314 389.849 C 621.394 390.334 621.471 390.72 621.558 391.049 C 621.645 391.377 621.673 391.62 621.987 392.022 C 622.145 392.222 622.501 392.556 623.057 392.562 C 623.612 392.568 623.974 392.24 624.133 392.045 C 624.453 391.655 624.476 391.428 624.56 391.14 C 624.894 389.985 625.139 388.043 625.51 385.447 C 626.253 380.257 627.379 372.781 629.407 367.371 C 629.409 367.367 629.411 367.362 629.413 367.358 C 633.07 357.25 639.933 352.09 645.026 351.637 C 645.466 351.783 645.754 351.948 645.98 352.343 C 646.239 352.797 646.437 353.558 646.516 354.59 C 646.674 356.656 646.38 359.716 646.182 363.371 C 645.788 370.66 645.861 380.42 651.286 390.551 C 652.472 393.401 654.877 396.324 658.044 398.644 C 661.225 400.974 665.19 402.685 669.463 402.838 C 673.736 402.991 678.296 401.528 682.422 397.701 C 686.301 394.103 689.81 388.449 692.624 380.111 C 693.535 382.124 694.654 383.793 696.189 384.979 C 699.692 388.266 706.159 390.697 712.821 389.621 C 719.522 388.538 726.261 383.647 729.545 372.628 C 732.428 363.838 731.703 357.08 729.248 350.982 C 726.791 344.883 722.72 339.423 718.901 332.744 C 718.899 332.74 718.896 332.737 718.894 332.733 C 715.521 326.409 714.31 321.76 713.67 319.534 C 713.51 318.976 713.422 318.606 713.206 318.18 C 713.152 318.074 713.089 317.96 712.959 317.81 C 712.828 317.66 712.597 317.432 712.175 317.354 L 712.173 317.354 C 712.068 317.335 711.96 317.331 711.854 317.341 Z M 355.688 343.95 C 347.35 344.007 339.012 344.609 331.317 345.892 C 330.714 345.993 330.186 346.353 329.873 346.878 L 308.228 383.057 C 307.405 384.432 308.38 386.183 309.982 386.207 C 310.132 386.21 310.281 386.196 310.427 386.167 C 328.079 382.612 346.146 382.157 361.105 383.438 C 369.32 384.141 376.63 385.419 382.359 386.922 C 377.399 390.374 371.855 393.642 365.544 396.832 C 354.382 402.325 343.267 407.454 328.036 413.162 C 328.026 413.166 328.016 413.171 328.006 413.175 C 315.657 418.011 312.308 419.088 305.587 421.506 L 305.06 421.688 C 305.054 421.688 305.049 421.689 305.043 421.69 C 304.084 422.029 303.587 422.167 302.896 422.625 C 302.723 422.74 302.507 422.842 302.194 423.315 C 302.038 423.552 301.843 423.934 301.835 424.472 C 301.828 425.011 302.094 425.606 302.386 425.93 C 302.971 426.577 303.358 426.563 303.602 426.615 C 303.846 426.668 304.009 426.678 304.169 426.684 C 305.445 426.735 306.991 426.471 309.432 426.114 C 314.312 425.401 321.766 424.168 328.614 423.34 L 328.622 423.34 C 336.401 422.617 344.656 421.776 351.706 420.861 C 358.774 419.945 364.508 419.023 367.78 417.876 C 367.812 417.864 367.845 417.85 367.876 417.836 C 373.275 415.636 378.832 410.869 383.826 405.596 C 388.819 400.324 393.165 394.551 395.758 390.183 C 395.767 390.17 395.775 390.156 395.783 390.142 L 395.783 390.141 L 414.224 357.415 C 414.224 357.414 414.224 357.414 414.224 357.413 C 414.72 356.535 414.516 355.428 413.739 354.785 C 410.897 352.432 406.392 350.638 400.601 349.047 C 394.81 347.456 387.756 346.162 380.058 345.271 C 372.36 344.381 364.025 343.892 355.688 343.95 Z M 711.675 522.488 C 711.62 522.486 711.565 522.486 711.51 522.489 C 711.483 522.492 711.456 522.494 711.429 522.498 C 711.351 522.505 711.274 522.518 711.198 522.536 C 711.049 522.574 710.907 522.631 710.774 522.708 C 710.76 522.715 710.746 522.723 710.732 522.731 C 710.729 522.732 710.726 522.734 710.723 522.735 C 710.681 522.762 710.64 522.79 710.6 522.82 C 710.56 522.85 710.522 522.882 710.484 522.916 C 710.479 522.92 710.475 522.924 710.47 522.929 C 710.405 522.989 710.345 523.055 710.291 523.125 C 710.274 523.145 710.258 523.166 710.243 523.187 C 710.242 523.187 710.242 523.188 710.241 523.188 C 710.237 523.194 710.233 523.2 710.23 523.206 C 710.203 523.244 710.178 523.283 710.155 523.323 C 710.134 523.359 710.115 523.396 710.098 523.434 C 710.093 523.444 710.088 523.454 710.083 523.463 C 709.999 523.649 709.95 523.848 709.938 524.051 C 709.936 524.075 709.935 524.099 709.934 524.123 C 709.933 524.132 709.933 524.142 709.932 524.152 L 709.932 574.135 C 709.932 574.358 709.977 574.579 710.064 574.784 C 710.172 575.041 710.344 575.267 710.562 575.44 C 710.563 575.44 710.563 575.44 710.564 575.44 C 710.607 575.475 710.652 575.507 710.698 575.537 C 710.792 575.597 710.891 575.648 710.994 575.688 C 710.995 575.688 710.995 575.688 710.996 575.688 C 711.099 575.728 711.206 575.758 711.315 575.777 C 711.391 575.791 711.469 575.798 711.546 575.801 C 714.017 575.875 716.223 575.939 717.831 576.117 C 719.417 576.293 720.311 576.848 720.147 576.624 C 771.582 641.623 814.155 650.965 850.345 669 C 864.123 675.856 872.617 685.786 877.862 695.962 C 873.409 700.623 867.027 706.382 857.505 712.79 C 857.504 712.791 857.503 712.792 857.502 712.793 C 800.717 751.226 727.01 795.949 666.322 826.677 C 666.321 826.678 666.32 826.677 666.319 826.677 C 666.318 826.678 666.317 826.68 666.316 826.68 C 657.155 831.271 645.236 835.658 633.038 836.987 C 620.838 838.316 608.423 836.614 597.939 829.179 C 597.928 829.171 597.918 829.163 597.907 829.156 C 590.781 824.355 579.316 809.351 579.495 787.633 C 579.495 787.62 579.495 787.607 579.495 787.594 C 579.013 756.84 588.84 729.716 599.169 708.812 C 604.334 698.359 609.62 689.471 613.8 682.447 C 617.981 675.423 621.067 670.496 621.894 666.957 C 621.904 666.909 621.913 666.861 621.92 666.813 L 621.983 666.372 C 622.317 664.914 622.475 663.806 622.154 662.676 C 621.991 662.099 621.608 661.441 620.958 661.069 C 620.307 660.697 619.579 660.702 619.015 660.832 L 619.014 660.832 C 617.885 661.092 617.013 661.733 615.96 662.634 C 614.906 663.534 613.737 664.734 612.442 666.226 C 607.265 672.192 600.08 682.878 592.78 696.744 C 578.18 724.477 563.202 764.841 564.362 804.662 C 564.363 804.676 564.364 804.69 564.365 804.705 C 565.206 819.82 567.386 853.817 590.678 874.792 C 590.683 874.797 590.688 874.802 590.694 874.808 C 608.772 890.652 642.564 889.878 667.856 876.268 L 667.85 876.268 C 732.315 841.823 802.454 800.703 859.368 762.183 C 859.369 762.183 859.37 762.183 859.371 762.183 C 875.446 751.247 882.995 740.818 887.903 725.23 C 887.967 725.086 887.976 724.98 888.022 724.85 C 888.042 724.795 888.058 724.74 888.072 724.683 L 888.097 724.582 C 889.117 721.264 890.031 717.729 890.878 713.89 C 891.428 711.541 891.875 709.32 892.252 707.206 C 892.803 704.467 893.339 701.292 893.818 697.298 C 897.437 671.695 889.779 653.993 879.249 641.937 C 868.719 629.881 855.395 623.369 847.764 619.56 C 847.763 619.56 847.762 619.56 847.761 619.56 C 821.664 606.554 793.499 598.252 765.841 574.255 C 770.364 574.385 774.35 574.56 777.3 574.77 C 777.312 574.771 777.324 574.772 777.336 574.772 L 780.176 574.91 C 781.759 575.023 783.037 575.017 784.115 574.855 C 785.193 574.692 786.154 574.412 786.894 573.576 C 787.633 572.74 787.689 571.427 787.352 570.527 C 787.016 569.628 786.44 568.873 785.689 568.056 C 782.687 564.789 776.499 560.594 768.466 555.606 C 756.349 548.083 740.175 539.012 725.777 530.629 C 725.158 530.194 724.548 529.764 723.883 529.311 C 719.961 526.637 715.606 523.908 712.317 522.65 C 712.116 522.554 711.898 522.499 711.675 522.488 Z M 272.045 580.582 C 270.879 580.571 269.625 580.67 268.288 580.885 C 258.456 582.465 248.91 590.242 242.011 602.143 C 237.132 610.5 236.06 618.1 237.669 625.018 C 239.279 631.937 243.491 638.112 248.918 643.939 L 248.881 643.904 C 259.141 655.883 273.54 672.603 272.228 701.178 L 271.724 705.754 C 271.721 705.777 271.719 705.8 271.717 705.823 C 271.668 706.721 271.668 707.351 271.847 707.974 C 271.937 708.285 272.059 708.674 272.553 708.998 C 273.047 709.321 273.803 709.216 274.15 709.008 C 274.843 708.59 275.023 708.128 275.338 707.515 C 275.653 706.902 275.972 706.131 276.297 705.192 C 277.598 701.436 279.011 695.007 279.485 687.188 C 280.432 671.552 277.568 650.34 261.782 635.073 L 261.769 635.06 C 254.42 627.733 250.556 622.152 248.924 617.802 C 247.303 613.483 247.774 610.423 249.193 607.531 C 251.868 603.595 254.994 601.723 258.136 600.94 C 261.299 600.153 264.509 600.497 267.133 601.168 C 270.551 602.103 272.638 604.185 274.04 606.793 C 275.444 609.403 276.084 612.538 276.359 615.275 C 276.634 618.013 276.547 620.257 276.604 621.437 C 276.611 621.584 276.619 621.717 276.639 621.86 C 276.658 622.003 276.648 622.133 276.812 622.447 C 276.893 622.605 277.041 622.869 277.441 623.046 C 277.841 623.224 278.375 623.12 278.619 622.978 C 279.107 622.692 279.103 622.512 279.182 622.367 C 279.497 621.785 279.678 621.135 280.09 619.822 C 280.091 619.818 280.092 619.814 280.093 619.811 L 281.84 614.01 C 283.352 609.178 285.485 600.41 284.588 592.944 C 284.14 589.211 282.908 585.728 280.258 583.384 C 278.271 581.626 275.543 580.614 272.045 580.582 Z M 714.974 608.566 C 712.416 608.625 709.694 609.094 706.956 609.951 C 699.66 612.232 692.143 617.438 687.299 625.919 C 679.048 639.069 679.057 651.807 682.313 664.355 C 685.571 676.914 691.95 689.432 696.551 702.847 C 701.203 716.665 703.153 735.857 700.723 756.133 C 696.419 734.739 690.524 715.882 682.329 701.256 C 672.693 684.058 659.712 672.62 642.574 670.337 C 642.565 670.336 642.556 670.335 642.546 670.335 C 642.533 670.333 642.52 670.332 642.507 670.332 C 642.474 670.328 642.441 670.326 642.409 670.324 C 642.401 670.324 642.394 670.324 642.387 670.324 C 642.384 670.324 642.382 670.324 642.379 670.324 C 642.37 670.325 642.36 670.325 642.35 670.326 C 642.305 670.325 642.259 670.327 642.214 670.33 C 642.208 670.331 642.202 670.332 642.196 670.333 C 642.149 670.337 642.102 670.343 642.056 670.351 C 642.04 670.354 642.023 670.358 642.007 670.362 C 641.969 670.37 641.932 670.38 641.895 670.39 C 641.881 670.394 641.867 670.399 641.854 670.403 C 641.814 670.415 641.776 670.428 641.738 670.443 C 641.714 670.453 641.691 670.463 641.668 670.474 C 641.643 670.484 641.619 670.496 641.596 670.507 C 641.567 670.523 641.54 670.539 641.512 670.556 C 641.49 670.568 641.469 670.581 641.448 670.594 C 641.429 670.606 641.411 670.619 641.394 670.632 C 641.362 670.654 641.331 670.677 641.301 670.701 C 641.3 670.702 641.299 670.703 641.298 670.704 C 641.216 670.771 641.141 670.846 641.073 670.928 C 641.06 670.944 641.047 670.961 641.035 670.978 C 641.013 671.006 640.992 671.035 640.972 671.064 C 640.967 671.071 640.962 671.079 640.957 671.086 C 640.903 671.17 640.856 671.259 640.818 671.351 C 640.811 671.368 640.805 671.385 640.799 671.402 C 640.766 671.489 640.74 671.579 640.721 671.67 C 640.716 671.7 640.712 671.729 640.708 671.758 C 640.705 671.782 640.702 671.806 640.699 671.83 C 640.696 671.861 640.694 671.893 640.693 671.924 C 640.692 671.95 640.691 671.977 640.69 672.003 C 640.69 672.007 640.69 672.011 640.69 672.015 C 640.691 672.028 640.691 672.041 640.692 672.054 L 641.735 698.679 C 641.757 699.252 642.072 699.773 642.568 700.059 C 647.998 703.179 652.392 705.047 656.325 707.414 C 660.257 709.781 663.789 712.625 667.759 717.904 C 668.53 718.929 670.121 718.735 670.623 717.555 C 670.645 717.504 670.664 717.453 670.68 717.4 L 670.846 716.868 C 682.505 729.601 691.756 749.776 696.107 779.43 C 696.238 780.706 697.701 781.361 698.74 780.61 C 698.852 780.529 698.954 780.434 699.043 780.328 C 699.043 780.327 699.043 780.326 699.044 780.325 C 699.079 780.284 699.112 780.241 699.142 780.196 C 699.148 780.188 699.153 780.18 699.158 780.171 C 699.183 780.133 699.207 780.094 699.229 780.054 C 699.233 780.046 699.236 780.038 699.24 780.029 C 699.259 779.994 699.277 779.959 699.293 779.922 C 699.303 779.899 699.312 779.875 699.321 779.851 C 699.335 779.816 699.347 779.782 699.359 779.747 C 699.359 779.744 699.36 779.742 699.36 779.739 L 699.368 779.713 L 702.797 768.42 C 711.601 743.431 712.354 712.524 707.353 694.321 L 707.353 694.318 C 704.505 683.875 699.26 671.976 695.568 660.819 C 691.901 649.738 689.94 639.487 692.77 632.509 C 695.9 628.097 701.732 625.206 707.597 624.957 C 713.53 624.704 719.31 626.987 722.648 632.766 C 722.648 632.767 722.648 632.768 722.648 632.769 C 726.46 639.346 728.103 649.816 728.777 657.612 C 729.115 661.511 729.23 664.732 729.324 666.567 C 729.347 667.026 729.368 667.396 729.396 667.699 C 729.409 667.851 729.424 667.981 729.45 668.134 C 729.463 668.211 729.476 668.291 729.511 668.411 C 729.547 668.532 729.546 668.683 729.841 669.045 C 729.915 669.136 730.014 669.241 730.163 669.349 C 730.312 669.457 730.762 669.624 730.764 669.624 C 730.766 669.625 731.537 669.621 731.539 669.621 C 731.541 669.621 731.969 669.462 732.108 669.365 C 732.665 668.976 732.654 668.75 732.713 668.61 C 732.832 668.331 732.838 668.222 732.869 668.073 C 732.929 667.774 732.978 667.427 733.042 666.935 C 733.043 666.93 733.044 666.926 733.044 666.921 L 734.06 658.471 C 735.859 644.027 735.941 634.275 734.489 627.106 C 733.037 619.936 729.925 615.358 725.732 611.788 C 725.731 611.787 725.73 611.786 725.729 611.785 C 723.584 609.964 720.717 608.935 717.473 608.646 C 716.662 608.573 715.827 608.547 714.974 608.566 Z M 286.349 611.609 C 285.83 611.605 285.362 611.922 285.174 612.406 L 278.442 629.714 C 278.267 630.164 278.367 630.675 278.698 631.025 C 286.734 639.508 306.488 659.588 300.705 691.838 C 300.705 691.842 300.705 691.845 300.705 691.849 C 298.976 701.905 293.819 717.306 290.555 733.014 C 287.291 748.718 285.832 764.826 291.948 776.61 C 291.949 776.612 291.95 776.613 291.951 776.616 C 294.351 781.456 298.876 784.71 303.693 785.474 C 308.518 786.24 313.692 784.357 316.865 779.196 C 316.866 779.195 316.867 779.194 316.868 779.193 C 321.913 770.885 322.906 759.469 322.608 751.95 C 322.534 750.07 322.377 748.436 322.166 747.133 C 321.955 745.831 321.781 744.939 321.297 744.157 C 321.177 743.961 321.033 743.75 320.729 743.552 C 320.425 743.354 319.853 743.239 319.424 743.398 C 318.565 743.716 318.476 744.255 318.318 744.706 C 318.002 745.609 317.835 746.868 317.707 748.847 L 317.707 748.821 L 317.657 749.413 C 317.656 749.42 317.655 749.428 317.654 749.436 C 317.424 752.829 317.632 759.148 311.813 763.573 C 310.223 764.709 307.796 764.763 305.366 763.896 C 302.931 763.027 300.618 761.247 299.455 759.256 C 294.455 750.524 295.538 738.789 298.547 726.073 C 301.557 713.353 306.432 699.774 308.492 687.393 C 308.492 687.389 308.492 687.386 308.492 687.382 C 314.79 647.418 298.936 626.92 287.322 612.091 C 287.088 611.791 286.73 611.614 286.349 611.61 L 286.349 611.609 Z M 234.139 651.078 C 233.108 651.059 232.103 651.158 231.133 651.363 C 229.194 651.774 227.387 652.615 225.76 653.802 C 222.505 656.178 219.909 659.873 217.875 664.31 C 213.809 673.177 211.973 685.08 212.446 695.974 L 212.446 695.977 C 212.447 695.982 212.446 695.987 212.446 695.993 L 212.895 712.276 C 212.895 712.294 212.896 712.311 212.897 712.329 C 212.949 713.072 212.999 713.602 213.073 714.023 C 213.11 714.234 213.137 714.404 213.252 714.664 C 213.309 714.793 213.379 714.963 213.62 715.175 C 213.86 715.386 214.424 715.569 214.834 715.455 C 215.654 715.226 215.643 714.85 215.738 714.661 C 215.832 714.471 215.888 714.31 215.949 714.122 C 216.071 713.745 216.191 713.28 216.333 712.715 C 216.901 710.456 217.792 706.579 219.322 702.693 C 220.853 698.807 223.04 694.971 225.965 692.805 C 228.891 690.639 232.486 689.911 237.747 692.329 C 244.829 695.68 249.97 702.384 253.472 710.042 C 257 717.766 259.494 725.712 262.371 736.113 L 263.123 738.911 C 263.123 738.914 263.126 738.915 263.126 738.918 L 263.126 738.921 C 263.274 739.491 263.422 739.941 263.647 740.35 C 263.76 740.555 263.893 740.758 264.122 740.96 C 264.35 741.163 264.737 741.371 265.182 741.36 C 265.627 741.349 265.994 741.131 266.209 740.928 C 266.424 740.726 266.548 740.525 266.653 740.326 C 266.863 739.928 266.997 739.501 267.125 738.983 C 267.634 736.909 267.936 733.345 267.951 728.547 C 267.98 718.952 266.768 704.619 262.882 689.575 C 262.876 689.553 262.869 689.531 262.862 689.509 C 260.116 680.818 257.255 672.696 253.345 666.037 C 249.434 659.378 244.418 654.156 237.454 651.542 C 237.407 651.524 237.359 651.509 237.311 651.497 C 236.229 651.234 235.171 651.097 234.139 651.078 Z M 499.279 744.303 C 500.459 745.45 501.668 746.634 502.846 747.779 C 505.789 751.412 511.346 757.85 513.76 760.651 C 521.985 771.146 534.987 789.483 537.353 803.631 C 537.453 804.551 537.388 805.098 537.148 805.635 C 536.904 806.18 536.411 806.811 535.431 807.652 C 533.472 809.335 529.721 811.691 523.693 815.801 C 504.24 829.021 488.373 834.014 468.642 834.743 C 460.513 833.913 456.365 831.797 454.176 829.619 C 452.029 827.482 451.569 825.197 451.194 823.135 C 451.291 819.805 451.337 815.141 454.163 807.404 C 457.031 799.553 462.789 788.651 474.429 773.523 L 474.439 773.512 C 474.444 773.506 474.443 773.502 474.448 773.496 C 481.678 764.471 490.68 754.226 499.279 744.303 Z" id="path2"/>
    </g>
  </g>
  <g>
    <path d="M 221.873 195.805 H 971.914 A 37.537 37.537 0 0 1 1009.451 233.342 V 984.852 A 37.537 37.537 0 0 1 971.914 1022.389 H 221.873 A 37.537 37.537 0 0 1 184.336 984.852 V 233.342 A 37.537 37.537 0 0 1 221.873 195.805 Z M 196.919 239.564 V 978.631 A 31.246 31.246 0 0 0 228.165 1009.876 H 965.623 A 31.246 31.246 0 0 0 996.868 978.631 V 239.564 A 31.246 31.246 0 0 0 965.623 208.318 H 228.165 A 31.246 31.246 0 0 0 196.919 239.564 Z" style="stroke-linecap: round; stroke-linejoin: round; stroke-miterlimit: 10; stroke-width: 4.4413px; fill-opacity: 0.25; paint-order: fill; fill: url(#gradient-2);" transform="matrix(-0.00192, -0.999998, 1.000003, 0.000467, -111.088318, 1091.875366)"/>
  </g>
</svg>